<svg width="59" height="59" viewBox="0 0 59 59" fill="none" xmlns="http://www.w3.org/2000/svg">
<rect width="58.7907" height="58.7907" rx="12" fill="#185080"/>
<path d="M7.25265 54.782C5.04643 55.1832 4.82915 53.4449 4.99629 52.5257L11.7654 45.7566L14.2724 48.013L7.25265 54.782Z" fill="#B29476" stroke="#B29476" stroke-width="0.7"/>
<path d="M17.2799 40.4915L16.0264 41.4943L18.032 43.7506L19.2856 42.4971L17.2799 40.4915Z" fill="#56545A" stroke="#56545A" stroke-width="0.7"/>
<path d="M16.78 50.5203L9.25879 42.9991L13.2701 38.9878L20.7913 46.509L16.78 50.5203Z" fill="#DFDFE1" stroke="#DFDFE1" stroke-width="0.7"/>
<path d="M23.9607 36.8353C21.7544 37.2364 21.5372 35.4982 21.7043 34.5789L28.4734 27.8098L30.9804 30.0662L23.9607 36.8353Z" fill="#B29476" stroke="#B29476" stroke-width="0.7"/>
<path d="M33.9879 22.5452L32.7344 23.548L34.74 25.8044L35.9936 24.5508L33.9879 22.5452Z" fill="#56545A" stroke="#56545A" stroke-width="0.7"/>
<path d="M33.488 32.5735L25.9668 25.0523L29.9781 21.041L37.4993 28.5622L33.488 32.5735Z" fill="#DFDFE1" stroke="#DFDFE1" stroke-width="0.7"/>
<path d="M42.5251 18.2703C40.3189 18.6714 40.1016 16.9332 40.2688 16.014L47.0378 9.24487L49.5449 11.5012L42.5251 18.2703Z" fill="#B29476" stroke="#B29476" stroke-width="0.7"/>
<path d="M52.5524 3.97998L51.2988 4.98281L53.3045 7.23917L54.558 5.98563L52.5524 3.97998Z" fill="#56545A" stroke="#56545A" stroke-width="0.7"/>
<path d="M52.0524 14.0081L44.5312 6.48689L48.5426 2.47559L56.0638 9.99679L52.0524 14.0081Z" fill="#DFDFE1" stroke="#DFDFE1" stroke-width="0.7"/>
</svg>
