<svg width="59" height="59" viewBox="0 0 59 59" fill="none" xmlns="http://www.w3.org/2000/svg">
<rect width="58.79" height="58.79" rx="12" fill="#185080"/>
<path d="M34.6042 53.1688C34.2432 52.8078 34.2432 49.9199 34.2432 49.9199C43.4845 54.2518 50.7284 50.8825 53.3757 48.8369V52.0858C51.3541 54.9738 34.9651 53.5298 34.6042 53.1688Z" fill="#E7A24D" stroke="#E7A24D"/>
<path d="M34.3897 49.198C36.1946 46.671 41.2485 46.3101 43.7754 46.3101C47.3853 46.4304 54.3886 47.1764 53.5222 49.198C52.6558 51.2195 46.182 51.7249 43.0534 51.7249C40.5265 51.7249 33.1134 50.9848 34.3897 49.198Z" fill="#F6C358" stroke="#F6C358"/>
<path d="M36.7702 48.8368C36.4092 48.4758 36.4092 45.5879 36.4092 45.5879C45.6506 49.9198 52.8944 46.5505 55.5417 44.5049V47.7538C53.5202 50.6417 37.1312 49.1978 36.7702 48.8368Z" fill="#E7A24D" stroke="#E7A24D"/>
<path d="M36.5557 44.866C38.3606 42.339 43.4145 41.978 45.9414 41.978C49.5514 42.0984 56.5546 42.8444 55.6882 44.866C54.8218 46.8875 48.3481 47.3929 45.2195 47.3929C42.6925 47.3929 35.2794 46.6528 36.5557 44.866Z" fill="#F6C358" stroke="#F6C358"/>
<path d="M33.1598 45.2269C32.7988 44.8659 32.7988 41.978 32.7988 41.978C42.0402 46.3099 49.2841 42.9406 51.9314 40.895V44.1439C49.9098 47.0319 33.5208 45.5879 33.1598 45.2269Z" fill="#E7A24D" stroke="#E7A24D"/>
<path d="M32.9453 41.2561C34.7503 38.7292 39.8042 38.3682 42.3311 38.3682C45.941 38.4885 52.9442 39.2345 52.0779 41.2561C51.2115 43.2776 44.7377 43.783 41.6091 43.783C39.0822 43.783 31.669 43.0429 32.9453 41.2561Z" fill="#F6C358" stroke="#F6C358"/>
<path d="M35.3249 40.8951C34.9639 40.5341 34.9639 37.6462 34.9639 37.6462C44.2052 41.9781 51.4491 38.6088 54.0964 36.5632V39.8122C52.0749 42.7001 35.6859 41.2561 35.3249 40.8951Z" fill="#E7A24D" stroke="#E7A24D"/>
<path d="M35.1104 36.9243C36.9153 34.3974 41.9692 34.0364 44.4961 34.0364C48.106 34.1567 55.1093 34.9028 54.2429 36.9243C53.3765 38.9459 46.9027 39.4512 43.7742 39.4512C41.2472 39.4512 33.8341 38.7111 35.1104 36.9243Z" fill="#F6C358" stroke="#F6C358"/>
<path d="M8.52826 8.27319H3.71582V21.1064C3.71582 21.1064 14.1428 27.5229 14.9448 27.5229C15.7469 27.5229 14.9448 14.6898 14.9448 14.6898L8.52826 8.27319Z" fill="#898890" stroke="#898890" stroke-width="0.7"/>
<path d="M20.9034 8.27319H25.3721V21.1064C25.3721 21.1064 15.3462 27.5229 14.9451 27.5229C14.5441 27.5229 14.9451 14.6898 14.9451 14.6898L20.9034 8.27319Z" fill="#898890" stroke="#898890" stroke-width="0.7"/>
<path d="M14.9454 1.85645C14.9454 1.85645 3.48329 7.87199 3.7164 7.87199H8.52883C9.33091 7.87199 14.5444 14.2886 14.9454 14.2886C15.3465 14.2886 20.1589 8.27303 20.5599 7.87199C20.961 7.47096 25.3724 8.27303 25.3724 7.87199C25.3724 7.47096 14.9454 1.85645 14.9454 1.85645Z" fill="#ACABB1" stroke="#ACABB1" stroke-width="0.7"/>
<path d="M10.1325 19.5021H8.52832V17.8979H9.33039L10.1325 19.5021Z" fill="#86858D" stroke="#86858D" stroke-width="0.7"/>
<path d="M6.45197 10.7623L5.23766 11.8105L4.18945 10.5962L4.79661 10.0721L6.45197 10.7623Z" fill="#86858D" stroke="#86858D" stroke-width="0.7"/>
<path d="M22.1637 13.0856L22.1637 14.6897L20.5596 14.6897L20.5596 13.8876L22.1637 13.0856Z" fill="#86858D" stroke="#86858D" stroke-width="0.7"/>
<path d="M18.9557 20.7051H17.3516V18.7L18.1536 19.101L18.9557 20.7051Z" fill="#A2A1A7" stroke="#A2A1A7" stroke-width="0.7"/>
<path d="M7.48598 13.6854L6.92509 12.1826L8.80371 11.4814L8.70843 12.3731L7.48598 13.6854Z" fill="#A2A1A7" stroke="#A2A1A7" stroke-width="0.7"/>
</svg>
