<svg width="59" height="59" viewBox="0 0 59 59" fill="none" xmlns="http://www.w3.org/2000/svg">
<rect width="58.79" height="58.79" rx="12" fill="#185080"/>
<path d="M36.203 52.2922C35.8936 51.9827 35.8936 49.5074 35.8936 49.5074C43.8147 53.2204 50.0238 50.3325 52.2929 48.5791V51.3639C50.5601 53.8393 36.5124 52.6016 36.203 52.2922Z" fill="#E7A24D" stroke="#E7A24D"/>
<path d="M36.0191 48.8885C37.5662 46.7225 41.8981 46.4131 44.0641 46.4131C47.1583 46.5162 53.161 47.1557 52.4184 48.8885C51.6758 50.6212 46.1269 51.0544 43.4452 51.0544C41.2793 51.0544 34.9252 50.42 36.0191 48.8885Z" fill="#F6C358" stroke="#F6C358"/>
<path d="M38.0594 48.579C37.75 48.2696 37.75 45.7942 37.75 45.7942C45.6712 49.5073 51.8802 46.6194 54.1493 44.866V47.6508C52.4166 50.1261 38.3688 48.8884 38.0594 48.579Z" fill="#E7A24D" stroke="#E7A24D"/>
<path d="M37.8756 45.1756C39.4227 43.0096 43.7546 42.7002 45.9205 42.7002C49.0147 42.8033 55.0175 43.4428 54.2749 45.1756C53.5323 46.9083 47.9833 47.3415 45.3017 47.3415C43.1357 47.3415 36.7816 46.7071 37.8756 45.1756Z" fill="#F6C358" stroke="#F6C358"/>
<path d="M34.9647 45.4848C34.6553 45.1754 34.6553 42.7 34.6553 42.7C42.5765 46.413 48.7855 43.5251 51.0546 41.7717V44.5565C49.3218 47.0319 35.2741 45.7942 34.9647 45.4848Z" fill="#E7A24D" stroke="#E7A24D"/>
<path d="M34.7808 42.0813C36.3279 39.9154 40.6598 39.606 42.8258 39.606C45.92 39.7091 51.9228 40.3486 51.1802 42.0813C50.4375 43.8141 44.8886 44.2473 42.2069 44.2473C40.041 44.2473 33.6869 43.6129 34.7808 42.0813Z" fill="#F6C358" stroke="#F6C358"/>
<path d="M36.8211 41.7719C36.5117 41.4625 36.5117 38.9871 36.5117 38.9871C44.4329 42.7002 50.6419 39.8122 52.911 38.0588V40.8436C51.1783 43.319 37.1306 42.0813 36.8211 41.7719Z" fill="#E7A24D" stroke="#E7A24D"/>
<path d="M36.6373 38.3682C38.1844 36.2022 42.5163 35.8928 44.6822 35.8928C47.7764 35.996 53.7792 36.6354 53.0366 38.3682C52.294 40.1009 46.745 40.5341 44.0634 40.5341C41.8974 40.5341 35.5433 39.8997 36.6373 38.3682Z" fill="#F6C358" stroke="#F6C358"/>
<path d="M11.2681 20.4219C8.79278 17.9465 10.2367 15.6774 11.2681 14.8523H22.0979C20.1176 14.8523 19.4162 16.5025 19.3131 17.3277C19.3131 19.308 21.1696 20.2156 22.0979 20.4219H11.2681Z" fill="#A77760" stroke="#785544" stroke-width="0.7"/>
<path d="M19.3135 17.3277C19.3135 15.5949 21.17 14.9554 22.0983 14.8523C22.7171 14.8523 24.8831 15.1617 24.8831 17.6371C24.8831 19.6174 23.0265 20.3187 22.0983 20.4219C21.17 20.4219 19.3135 19.4936 19.3135 17.3277Z" fill="#F3D69E" stroke="#E0C590" stroke-width="0.7"/>
<path d="M8.17342 14.8523C5.69805 12.3769 7.14202 10.1078 8.17342 9.28271H19.0032C17.0229 9.28271 16.3215 10.933 16.2184 11.7581C16.2184 13.7384 18.0749 14.646 19.0032 14.8523H8.17342Z" fill="#A77760" stroke="#785544" stroke-width="0.7"/>
<path d="M16.2188 11.7581C16.2188 10.0253 18.0753 9.38586 19.0035 9.28271C19.6224 9.28271 21.7883 9.59214 21.7883 12.0675C21.7883 14.0478 19.9318 14.7492 19.0035 14.8523C18.0753 14.8523 16.2188 13.924 16.2188 11.7581Z" fill="#F3D69E" stroke="#E0C590" stroke-width="0.7"/>
<path d="M5.07967 20.4219C2.6043 17.9465 4.04827 15.6774 5.07967 14.8523H15.9094C13.9291 14.8523 13.2278 16.5025 13.1246 17.3277C13.1246 19.308 14.9811 20.2156 15.9094 20.4219H5.07967Z" fill="#A77760" stroke="#785544" stroke-width="0.7"/>
<path d="M13.125 17.3277C13.125 15.5949 14.9815 14.9554 15.9098 14.8523C16.5286 14.8523 18.6946 15.1617 18.6946 17.6371C18.6946 19.6174 16.8381 20.3187 15.9098 20.4219C14.9815 20.4219 13.125 19.4936 13.125 17.3277Z" fill="#F3D69E" stroke="#E0C590" stroke-width="0.7"/>
</svg>
