<svg width="59" height="59" viewBox="0 0 59 59" fill="none" xmlns="http://www.w3.org/2000/svg">
<rect width="58.79" height="58.79" rx="12" fill="#185080"/>
<path d="M8.04704 41.4624H4.33398V51.3639C4.33398 51.3639 12.3789 56.3146 12.9978 56.3146C13.6166 56.3146 12.9978 46.4131 12.9978 46.4131L8.04704 41.4624Z" fill="#898890" stroke="#898890" stroke-width="0.7"/>
<path d="M17.5951 41.4624H21.043V51.3639C21.043 51.3639 13.3074 56.3146 12.998 56.3146C12.6886 56.3146 12.998 46.4131 12.998 46.4131L17.5951 41.4624Z" fill="#898890" stroke="#898890" stroke-width="0.7"/>
<path d="M12.9985 36.5117C12.9985 36.5117 4.15488 41.153 4.33474 41.153H8.04779C8.66664 41.153 12.6891 46.1038 12.9985 46.1038C13.3079 46.1038 17.021 41.4625 17.3304 41.153C17.6398 40.8436 21.0435 41.4625 21.0435 41.153C21.0435 40.8436 12.9985 36.5117 12.9985 36.5117Z" fill="#ACABB1" stroke="#ACABB1" stroke-width="0.7"/>
<path d="M9.28554 50.1262H8.04785V48.8885H8.66669L9.28554 50.1262Z" fill="#86858D" stroke="#86858D" stroke-width="0.7"/>
<path d="M6.44487 43.383L5.50797 44.1918L4.69922 43.2549L5.16767 42.8505L6.44487 43.383Z" fill="#86858D" stroke="#86858D" stroke-width="0.7"/>
<path d="M18.5678 45.1755L18.5678 46.4132L17.3301 46.4132L17.3301 45.7944L18.5678 45.1755Z" fill="#86858D" stroke="#86858D" stroke-width="0.7"/>
<path d="M16.0922 51.0544H14.8545V49.5073L15.4733 49.8167L16.0922 51.0544Z" fill="#A2A1A7" stroke="#A2A1A7" stroke-width="0.7"/>
<path d="M7.24306 45.6382L6.81031 44.4787L8.25977 43.9377L8.18625 44.6257L7.24306 45.6382Z" fill="#A2A1A7" stroke="#A2A1A7" stroke-width="0.7"/>
<path d="M24.1369 24.1349H20.4238V34.0364C20.4238 34.0364 28.4688 38.9871 29.0876 38.9871C29.7065 38.9871 29.0876 29.0856 29.0876 29.0856L24.1369 24.1349Z" fill="#898890" stroke="#898890" stroke-width="0.7"/>
<path d="M33.685 24.1349H37.1328V34.0364C37.1328 34.0364 29.3973 38.9871 29.0879 38.9871C28.7784 38.9871 29.0879 29.0856 29.0879 29.0856L33.685 24.1349Z" fill="#898890" stroke="#898890" stroke-width="0.7"/>
<path d="M29.0884 19.1841C29.0884 19.1841 20.2447 23.8254 20.4246 23.8254H24.1376C24.7565 23.8254 28.7789 28.7761 29.0884 28.7761C29.3978 28.7761 33.1108 24.1348 33.4203 23.8254C33.7297 23.516 37.1333 24.1348 37.1333 23.8254C37.1333 23.516 29.0884 19.1841 29.0884 19.1841Z" fill="#ACABB1" stroke="#ACABB1" stroke-width="0.7"/>
<path d="M25.3754 32.7986H24.1377V31.5609H24.7565L25.3754 32.7986Z" fill="#86858D" stroke="#86858D" stroke-width="0.7"/>
<path d="M22.5347 26.0555L21.5978 26.8643L20.7891 25.9274L21.2575 25.523L22.5347 26.0555Z" fill="#86858D" stroke="#86858D" stroke-width="0.7"/>
<path d="M34.6576 27.8479L34.6576 29.0856L33.4199 29.0856L33.4199 28.4667L34.6576 27.8479Z" fill="#86858D" stroke="#86858D" stroke-width="0.7"/>
<path d="M32.182 33.7269H30.9443V32.1798L31.5632 32.4892L32.182 33.7269Z" fill="#A2A1A7" stroke="#A2A1A7" stroke-width="0.7"/>
<path d="M23.3329 28.3107L22.9002 27.1512L24.3496 26.6102L24.2761 27.2982L23.3329 28.3107Z" fill="#A2A1A7" stroke="#A2A1A7" stroke-width="0.7"/>
<path d="M41.465 6.80737H37.752V16.7088C37.752 16.7088 45.7969 21.6596 46.4157 21.6596C47.0346 21.6596 46.4157 11.7581 46.4157 11.7581L41.465 6.80737Z" fill="#898890" stroke="#898890" stroke-width="0.7"/>
<path d="M51.0131 6.80737H54.4609V16.7088C54.4609 16.7088 46.7254 21.6596 46.416 21.6596C46.1066 21.6596 46.416 11.7581 46.416 11.7581L51.0131 6.80737Z" fill="#898890" stroke="#898890" stroke-width="0.7"/>
<path d="M46.4165 1.85645C46.4165 1.85645 37.5729 6.49776 37.7527 6.49776H41.4658C42.0846 6.49776 46.1071 11.4485 46.4165 11.4485C46.7259 11.4485 50.439 6.80718 50.7484 6.49776C51.0578 6.18834 54.4614 6.80718 54.4614 6.49776C54.4614 6.18834 46.4165 1.85645 46.4165 1.85645Z" fill="#ACABB1" stroke="#ACABB1" stroke-width="0.7"/>
<path d="M42.7025 15.4711H41.4648V14.2334H42.0837L42.7025 15.4711Z" fill="#86858D" stroke="#86858D" stroke-width="0.7"/>
<path d="M39.8628 8.72776L38.9259 9.53651L38.1172 8.59961L38.5856 8.19523L39.8628 8.72776Z" fill="#86858D" stroke="#86858D" stroke-width="0.7"/>
<path d="M51.9857 10.5204L51.9857 11.7581L50.748 11.7581L50.748 11.1392L51.9857 10.5204Z" fill="#86858D" stroke="#86858D" stroke-width="0.7"/>
<path d="M49.5101 16.3993H48.2725V14.8522L48.8913 15.1616L49.5101 16.3993Z" fill="#A2A1A7" stroke="#A2A1A7" stroke-width="0.7"/>
<path d="M40.661 10.9831L40.2283 9.82353L41.6777 9.28259L41.6042 9.97056L40.661 10.9831Z" fill="#A2A1A7" stroke="#A2A1A7" stroke-width="0.7"/>
</svg>
