<svg width="59" height="59" viewBox="0 0 59 59" fill="none" xmlns="http://www.w3.org/2000/svg">
<rect width="58.79" height="58.79" rx="12" fill="#185080"/>
<path d="M55.9023 38.0588H32.7988V52.4985H55.9023V38.0588Z" fill="#FF4F19" stroke="#FF4F19"/>
<path d="M44.3509 37.3369C39.7302 34.7377 35.6871 36.2539 34.2432 37.3369V51.0545H44.3509V37.3369Z" fill="#F4E4B8" stroke="#F4E4B8"/>
<path d="M35.6865 38.4198H42.9063" stroke="#CDC7BA"/>
<path d="M35.6865 39.5028H40.7404" stroke="#CDC7BA"/>
<path d="M35.6865 40.9468H43.6283" stroke="#CDC7BA"/>
<path d="M43.6289 42.3906H36.4091" stroke="#CDC7BA"/>
<path d="M43.6289 43.4736H38.575" stroke="#CDC7BA"/>
<path d="M43.6289 44.9176H35.6871" stroke="#CDC7BA"/>
<path d="M43.6289 46.7225H36.4091" stroke="#CDC7BA"/>
<path d="M43.6289 47.8055H38.575" stroke="#CDC7BA"/>
<path d="M43.6289 49.2495H35.6871" stroke="#CDC7BA"/>
<path d="M55.181 37.3369C50.5603 34.7377 46.5172 36.2539 45.0732 37.3369V51.0545H55.181V37.3369Z" fill="#FBD386" stroke="#FBD386"/>
<path d="M46.5166 38.4198H53.7364" stroke="#AB9C8F"/>
<path d="M46.5166 39.5028H51.5705" stroke="#AB9C8F"/>
<path d="M46.5166 40.9468H54.4584" stroke="#AB9C8F"/>
<path d="M54.459 42.3906H47.2392" stroke="#AB9C8F"/>
<path d="M54.459 43.4736H49.4051" stroke="#AB9C8F"/>
<path d="M54.459 44.9176H46.5172" stroke="#AB9C8F"/>
<path d="M54.459 46.7225H47.2392" stroke="#AB9C8F"/>
<path d="M54.459 47.8055H49.4051" stroke="#AB9C8F"/>
<path d="M54.459 49.2495H46.5172" stroke="#AB9C8F"/>
<path d="M44.3505 36.6148L42.1846 35.8928V43.1126H44.3505V36.6148Z" fill="#5E647F" stroke="#5E647F"/>
<path d="M5.51822 24.0832C5.15723 23.7222 5.15723 20.8343 5.15723 20.8343C14.3986 25.1662 21.6425 21.797 24.2898 19.7513V23.0003C22.2682 25.8882 5.87921 24.4442 5.51822 24.0832Z" fill="#E7A24D" stroke="#E7A24D"/>
<path d="M5.30372 20.1123C7.10868 17.5854 12.1626 17.2244 14.6895 17.2244C18.2994 17.3447 25.3026 18.0907 24.4363 20.1123C23.5699 22.1338 17.0961 22.6392 13.9675 22.6392C11.4406 22.6392 4.02743 21.8991 5.30372 20.1123Z" fill="#F6C358" stroke="#F6C358"/>
<path d="M7.68423 19.7513C7.32324 19.3903 7.32324 16.5024 7.32324 16.5024C16.5646 20.8343 23.8085 17.4651 26.4558 15.4194V18.6684C24.4342 21.5563 8.04523 20.1123 7.68423 19.7513Z" fill="#E7A24D" stroke="#E7A24D"/>
<path d="M7.46974 15.7804C9.27469 13.2534 14.3286 12.8925 16.8555 12.8925C20.4654 13.0128 27.4687 13.7588 26.6023 15.7804C25.7359 17.8019 19.2621 18.3073 16.1335 18.3073C13.6066 18.3073 6.19344 17.5672 7.46974 15.7804Z" fill="#F6C358" stroke="#F6C358"/>
<path d="M4.07388 16.1415C3.71289 15.7805 3.71289 12.8925 3.71289 12.8925C12.9543 17.2244 20.1982 13.8552 22.8454 11.8096V15.0585C20.8239 17.9464 4.43487 16.5025 4.07388 16.1415Z" fill="#E7A24D" stroke="#E7A24D"/>
<path d="M3.85939 12.1705C5.66434 9.64358 10.7182 9.28259 13.2452 9.28259C16.8551 9.40292 23.8583 10.149 22.9919 12.1705C22.1255 14.1921 15.6518 14.6975 12.5232 14.6975C9.99624 14.6975 2.58309 13.9573 3.85939 12.1705Z" fill="#F6C358" stroke="#F6C358"/>
<path d="M6.2399 11.8096C5.87891 11.4486 5.87891 8.56063 5.87891 8.56063C15.1203 12.8925 22.3642 9.52328 25.0114 7.47766V10.7266C22.9899 13.6145 6.60089 12.1705 6.2399 11.8096Z" fill="#E7A24D" stroke="#E7A24D"/>
<path d="M6.0254 7.83861C7.83036 5.31167 12.8842 4.95068 15.4112 4.95068C19.0211 5.07101 26.0243 5.81706 25.1579 7.83861C24.2916 9.86016 17.8178 10.3656 14.6892 10.3656C12.1623 10.3656 4.74911 9.62543 6.0254 7.83861Z" fill="#F6C358" stroke="#F6C358"/>
</svg>
