<svg width="59" height="59" viewBox="0 0 59 59" fill="none" xmlns="http://www.w3.org/2000/svg">
<rect width="58.79" height="58.79" rx="12" fill="#185080"/>
<path d="M7.25067 54.7813C5.04448 55.1824 4.8272 53.4442 4.99434 52.525L11.7633 45.756L14.2704 48.0123L7.25067 54.7813Z" fill="#B29476" stroke="#B29476" stroke-width="0.7"/>
<path d="M17.2789 40.4912L16.0254 41.494L18.031 43.7504L19.2845 42.4968L17.2789 40.4912Z" fill="#56545A" stroke="#56545A" stroke-width="0.7"/>
<path d="M16.777 50.5194L9.25586 42.9983L13.2671 38.9871L20.7882 46.5082L16.777 50.5194Z" fill="#DFDFE1" stroke="#DFDFE1" stroke-width="0.7"/>
<path d="M20.8875 24.6918C22.4342 19.7937 26.9027 18.5692 28.9436 18.5692C36.1942 18.408 38.0729 23.3287 38.2888 27.4309C38.4499 30.4922 35.7108 33.7147 34.4218 35.0037C34.4218 36.8083 34.1533 38.4947 33.9384 39.0318H32.1661C31.2638 36.7116 30.716 38.0651 30.5548 39.0318H28.6214C27.4613 36.5827 27.0638 38.0114 27.0101 39.0318H24.5933L24.271 34.6815C23.6265 34.1981 18.954 30.8145 20.8875 24.6918Z" fill="#D1E0DD" stroke="#D1E0DD" stroke-width="2"/>
<circle cx="25.7391" cy="30.005" r="2.41685" fill="#748080"/>
<circle cx="32.5057" cy="30.005" r="2.41685" fill="#748080"/>
<path d="M30.4111 33.5497C30.4111 33.9364 29.4444 34.0331 28.961 34.0331C28.0587 34.033 27.9406 33.3886 27.9943 33.0663C28.1232 32.2929 29.0147 32.207 29.4444 32.2607C29.9278 32.2607 30.4111 33.3886 30.4111 33.5497Z" fill="#62676A" stroke="#62676A"/>
<path d="M42.0841 6.80725H38.3711V16.7087C38.3711 16.7087 46.416 21.6595 47.0349 21.6595C47.6537 21.6595 47.0349 11.758 47.0349 11.758L42.0841 6.80725Z" fill="#898890" stroke="#898890" stroke-width="0.7"/>
<path d="M51.6313 6.80725H55.0791V16.7087C55.0791 16.7087 47.3436 21.6595 47.0342 21.6595C46.7247 21.6595 47.0342 11.758 47.0342 11.758L51.6313 6.80725Z" fill="#898890" stroke="#898890" stroke-width="0.7"/>
<path d="M47.0347 1.85657C47.0347 1.85657 38.191 6.49788 38.3709 6.49788H42.0839C42.7028 6.49788 46.7252 11.4486 47.0347 11.4486C47.3441 11.4486 51.0571 6.8073 51.3666 6.49788C51.676 6.18846 55.0796 6.8073 55.0796 6.49788C55.0796 6.18846 47.0347 1.85657 47.0347 1.85657Z" fill="#ACABB1" stroke="#ACABB1" stroke-width="0.7"/>
<path d="M43.3217 15.4711H42.084V14.2334H42.7028L43.3217 15.4711Z" fill="#86858D" stroke="#86858D" stroke-width="0.7"/>
<path d="M40.481 8.72789L39.5441 9.53663L38.7354 8.59973L39.2038 8.19536L40.481 8.72789Z" fill="#86858D" stroke="#86858D" stroke-width="0.7"/>
<path d="M52.6039 10.5204L52.6039 11.7581L51.3662 11.7581L51.3662 11.1392L52.6039 10.5204Z" fill="#86858D" stroke="#86858D" stroke-width="0.7"/>
<path d="M50.1283 16.3993H48.8906V14.8522L49.5095 15.1616L50.1283 16.3993Z" fill="#A2A1A7" stroke="#A2A1A7" stroke-width="0.7"/>
<path d="M41.2792 10.9831L40.8464 9.82353L42.2959 9.28259L42.2224 9.97056L41.2792 10.9831Z" fill="#A2A1A7" stroke="#A2A1A7" stroke-width="0.7"/>
</svg>
