<svg width="44" height="44" viewBox="0 0 44 44" fill="none" xmlns="http://www.w3.org/2000/svg">
<path d="M7.02246 36.8518C8.71357 38.5429 10.5577 37.2553 11.2623 36.3941C13.1413 34.5151 13.2232 33.6575 11.72 32.1543C10.2168 30.651 7.89575 31.7749 7.03454 32.6361C6.25161 33.2624 5.33135 35.1607 7.02246 36.8518Z" fill="#E5A307" stroke="#E5A307"/>
<path d="M12.6833 34.9966L17.146 30.534L13.388 26.7759L8.9253 31.2386C11.9787 31.4735 12.8399 34.0571 12.6833 34.9966Z" fill="#924B0B" stroke="#924B0B"/>
<path d="M22.3133 32.8827L16.6762 27.2457L15.5018 28.4201L18.7901 31.7083L17.8506 32.6478C16.7232 34.5269 17.3809 35.9361 17.8506 36.4059C18.4769 37.0322 20.1054 37.9091 21.6086 36.4059C23.1118 34.9027 22.7047 33.4308 22.3133 32.8827Z" fill="#E9912F" stroke="#E9912F"/>
<path d="M11.0392 21.6086L16.6762 27.2457L15.5019 28.4201L12.2136 25.1318L11.0392 26.3062C9.16019 27.4336 7.75093 26.7759 7.28118 26.3062C6.65484 25.6798 5.77797 24.0514 7.28118 22.5482C8.78439 21.0449 10.4912 21.2172 11.0392 21.6086Z" fill="#EAB600" stroke="#EAB600"/>
<path d="M35.4663 14.0926C35.4663 14.0926 37.1105 7.28117 36.8756 7.04629C36.6407 6.81141 16.9111 27.0108 16.9111 27.0108L19.7296 29.8293L35.4663 14.0926Z" fill="#C7CAD3" stroke="#C7CAD3"/>
<path d="M30.1263 8.28282C30.1263 8.28282 36.4059 6.57654 36.6408 6.81143C36.8756 7.04631 16.6763 26.7759 16.6763 26.7759L14.1547 24.2544L30.1263 8.28282Z" fill="#DBE2EA" stroke="#DBE2EA"/>
</svg>
