<svg width="59" height="59" viewBox="0 0 59 59" fill="none" xmlns="http://www.w3.org/2000/svg">
<rect width="58.7907" height="58.7907" rx="12" fill="#924772"/>
<path d="M23.5356 5.56978L18.2754 10.5206V8.04518L22.9168 4.95093L23.5356 5.56978Z" fill="#FFDD54" stroke="#FFDD54" stroke-width="0.7"/>
<path d="M23.5364 5.56982L18.2762 10.83L17.9668 11.1395H21.061V10.5206C21.061 10.5206 23.5364 6.80752 23.8459 6.18867C24.1553 5.56982 23.5364 5.56982 23.5364 5.56982Z" fill="#FFB454" stroke="#FFB454" stroke-width="0.7"/>
<path d="M7.44567 22.8972C5.21781 25.3726 4.24828 25.3726 4.04199 25.0632V24.1349C6.51739 21.969 7.65195 20.3187 8.06452 19.803L9.61164 20.4218L7.44567 22.8972Z" fill="#F69F3A" stroke="#F69F3A" stroke-width="0.7"/>
<path d="M14.2539 14.8525L12.0879 17.3279L15.4916 19.1845L17.6575 17.3279L14.2539 14.8525Z" fill="#EC8600" stroke="#EC8600" stroke-width="0.7"/>
<path d="M17.6363 11.4487L16.418 13.3052L19.8216 15.4712L23.5347 12.0675V10.8298L21.3688 11.4487H19.8216H17.6363Z" fill="#EC8600" stroke="#EC8600" stroke-width="0.7"/>
<path d="M13.6339 15.1616L11.7773 17.3276C11.5298 14.8522 10.2302 13.7176 9.61133 13.305L11.4679 11.4485L13.015 12.6862L13.6339 15.1616Z" fill="#FFB454" stroke="#FFB454" stroke-width="0.7"/>
<path d="M19.8226 15.162C19.8226 15.4714 17.6566 17.0185 17.6566 17.0185C15.8001 15.4714 14.8718 14.9557 14.2529 14.5431L15.8001 13.3054C15.8001 13.3054 17.6566 13.3054 18.2755 13.6148C18.8943 13.9243 19.8226 14.8525 19.8226 15.162Z" fill="#FFB454" stroke="#FFB454" stroke-width="0.7"/>
<path d="M17.9649 10.5207L16.1084 12.9961C14.2518 11.449 14.5612 9.38617 13.9424 8.9736L18.2743 5.2605C18.2743 5.2605 19.2026 5.56992 19.2026 5.87935C19.2026 6.18877 17.0366 6.4982 17.0366 7.11705C17.0366 7.7359 17.9649 8.04532 17.9649 8.04532V10.5207Z" fill="#FFB454" stroke="#FFB454" stroke-width="0.7"/>
<path d="M11.777 22.2786L9.30159 21.0409L10.2299 19.1843L12.0864 17.3278C13.943 18.5655 14.5618 18.7717 15.1807 19.1843L13.0147 21.0409L11.777 22.2786Z" fill="#FFB454" stroke="#FFB454" stroke-width="0.7"/>
<path d="M11.4687 17.6373C11.4687 18.875 9.30269 20.1127 9.30269 20.1127L8.06499 19.8033L7.13672 16.0902C7.13672 16.0902 8.99327 13.9242 9.61212 13.3054C10.231 12.6865 11.4687 16.3996 11.4687 17.6373Z" fill="#FFDD54" stroke="#FFDD54" stroke-width="0.7"/>
<path d="M15.7997 12.0675C16.1091 13.924 13.6337 14.8523 13.6337 14.8523L13.0149 12.6863L11.4678 11.4486L14.2526 8.66382C14.2526 8.66382 15.4903 10.2109 15.7997 12.0675Z" fill="#FFDD54" stroke="#FFDD54" stroke-width="0.7"/>
<path d="M9.30188 21.041C8.99245 21.041 6.20763 24.4447 5.27935 25.0635C4.35108 25.6824 3.11338 24.7541 4.04165 23.8258C4.96993 22.8976 8.06418 20.1128 8.06418 19.8033C8.06418 19.4939 7.1359 17.0185 7.1359 16.0902C7.1359 15.162 17.9658 4.95093 18.2752 4.95093C18.5846 4.95093 19.2035 5.56978 19.2035 5.8792C19.2035 6.18863 17.0375 6.80748 17.0375 7.1169C17.0375 7.42633 17.9658 8.04518 18.2752 8.04518C18.5846 8.04518 22.6072 4.95093 22.9166 4.95093C23.226 4.95093 23.8448 5.56976 24.1543 5.87919L24.1543 5.8792C24.4637 6.18863 21.06 10.2112 21.06 10.5206C21.06 10.83 21.06 11.4489 21.3695 11.4489C21.6789 11.4489 23.8449 10.5206 23.8449 10.83V11.7583C23.8449 12.3771 12.0867 22.2787 11.7773 22.2787C11.4679 22.2787 9.6113 21.041 9.30188 21.041Z" stroke="#F69F3A" stroke-width="0.7"/>
<path d="M39.6086 39.606H35.8955V49.5076C35.8955 49.5076 43.9406 54.4584 44.5594 54.4584C45.1783 54.4584 44.5594 44.5568 44.5594 44.5568L39.6086 39.606Z" fill="#898890" stroke="#898890" stroke-width="0.7"/>
<path d="M49.1576 39.606H52.6055V49.5076C52.6055 49.5076 44.8698 54.4584 44.5604 54.4584C44.251 54.4584 44.5604 44.5568 44.5604 44.5568L49.1576 39.606Z" fill="#898890" stroke="#898890" stroke-width="0.7"/>
<path d="M44.5602 34.6553C44.5602 34.6553 35.7164 39.2966 35.8963 39.2966H39.6094C40.2282 39.2966 44.2507 44.2474 44.5602 44.2474C44.8696 44.2474 48.5827 39.6061 48.8921 39.2966C49.2015 38.9872 52.6052 39.6061 52.6052 39.2966C52.6052 38.9872 44.5602 34.6553 44.5602 34.6553Z" fill="#ACABB1" stroke="#ACABB1" stroke-width="0.7"/>
<path d="M40.8471 48.2699H39.6094V47.0322H40.2282L40.8471 48.2699Z" fill="#86858D" stroke="#86858D" stroke-width="0.7"/>
<path d="M38.0074 41.5266L37.0705 42.3354L36.2617 41.3984L36.7302 40.9941L38.0074 41.5266Z" fill="#86858D" stroke="#86858D" stroke-width="0.7"/>
<path d="M50.1293 43.3192L50.1293 44.5569L48.8916 44.5569L48.8916 43.938L50.1293 43.3192Z" fill="#86858D" stroke="#86858D" stroke-width="0.7"/>
<path d="M47.6547 49.1982H46.417V47.6511L47.0358 47.9605L47.6547 49.1982Z" fill="#A2A1A7" stroke="#A2A1A7" stroke-width="0.7"/>
<path d="M38.8046 43.7821L38.3718 42.6225L39.8213 42.0815L39.7478 42.7695L38.8046 43.7821Z" fill="#A2A1A7" stroke="#A2A1A7" stroke-width="0.7"/>
</svg>
