<svg width="59" height="59" viewBox="0 0 59 59" fill="none" xmlns="http://www.w3.org/2000/svg">
<rect width="58.79" height="58.79" rx="12" fill="#924772"/>
<path d="M23.5355 5.56953L18.2754 10.5203V8.04489L22.9167 4.95068L23.5355 5.56953Z" fill="#FFDD54" stroke="#FFDD54" stroke-width="0.7"/>
<path d="M23.5354 5.56958L18.2752 10.8297L17.9658 11.1392H21.06V10.5203C21.06 10.5203 23.5354 6.80726 23.8448 6.18842C24.1542 5.56958 23.5354 5.56958 23.5354 5.56958Z" fill="#FFB454" stroke="#FFB454" stroke-width="0.7"/>
<path d="M7.44562 22.8972C5.21779 25.3726 4.24827 25.3726 4.04199 25.0631V24.1349C6.51736 21.9689 7.6519 20.3187 8.06447 19.803L9.61157 20.4218L7.44562 22.8972Z" fill="#F69F3A" stroke="#F69F3A" stroke-width="0.7"/>
<path d="M14.2529 14.8523L12.0869 17.3277L15.4905 19.1842L17.6565 17.3277L14.2529 14.8523Z" fill="#EC8600" stroke="#EC8600" stroke-width="0.7"/>
<path d="M17.6373 11.4487L16.4189 13.3052L19.8226 15.4711L23.5356 12.0675V10.8298L21.3697 11.4487H19.8226H17.6373Z" fill="#EC8600" stroke="#EC8600" stroke-width="0.7"/>
<path d="M13.6338 15.1615L11.7773 17.3275C11.5297 14.8521 10.2302 13.7176 9.61133 13.305L11.4679 11.4485L13.015 12.6862L13.6338 15.1615Z" fill="#FFB454" stroke="#FFB454" stroke-width="0.7"/>
<path d="M19.8225 15.1617C19.8225 15.4711 17.6566 17.0182 17.6566 17.0182C15.8 15.4711 14.8718 14.9554 14.2529 14.5429L15.8 13.3052C15.8 13.3052 17.6566 13.3052 18.2754 13.6146C18.8942 13.924 19.8225 14.8523 19.8225 15.1617Z" fill="#FFB454" stroke="#FFB454" stroke-width="0.7"/>
<path d="M17.9658 10.5204L16.1093 12.9958C14.2528 11.4487 14.5622 9.38587 13.9434 8.97331L18.2753 5.26025C18.2753 5.26025 19.2035 5.56967 19.2035 5.8791C19.2035 6.18852 17.0376 6.49794 17.0376 7.11678C17.0376 7.73562 17.9658 8.04504 17.9658 8.04504V10.5204Z" fill="#FFB454" stroke="#FFB454" stroke-width="0.7"/>
<path d="M11.777 22.2783L9.30166 21.0406L10.2299 19.1841L12.0865 17.3276C13.943 18.5653 14.5618 18.7715 15.1807 19.1841L13.0147 21.0406L11.777 22.2783Z" fill="#FFB454" stroke="#FFB454" stroke-width="0.7"/>
<path d="M11.4676 17.637C11.4676 18.8747 9.30169 20.1124 9.30169 20.1124L8.06401 19.8029L7.13574 16.0899C7.13574 16.0899 8.99227 13.9239 9.61111 13.3051C10.23 12.6863 11.4676 16.3993 11.4676 17.637Z" fill="#FFDD54" stroke="#FFDD54" stroke-width="0.7"/>
<path d="M15.7997 12.0675C16.1091 13.924 13.6337 14.8522 13.6337 14.8522L13.0149 12.6863L11.4678 11.4486L14.2526 8.66382C14.2526 8.66382 15.4902 10.2109 15.7997 12.0675Z" fill="#FFDD54" stroke="#FFDD54" stroke-width="0.7"/>
<path d="M9.30181 21.0406C8.99239 21.0406 6.2076 24.4442 5.27933 25.0631C4.35107 25.6819 3.11339 24.7536 4.04165 23.8254C4.96991 22.8971 8.06412 20.1123 8.06412 19.8029C8.06412 19.4935 7.13586 17.0181 7.13586 16.0898C7.13586 15.1616 17.9656 4.95068 18.275 4.95068C18.5844 4.95068 19.2033 5.56953 19.2033 5.87895C19.2033 6.18837 17.0373 6.80721 17.0373 7.11663C17.0373 7.42605 17.9656 8.04489 18.275 8.04489C18.5844 8.04489 22.6069 4.95068 22.9163 4.95068C23.2258 4.95068 23.8446 5.56951 24.154 5.87894L24.154 5.87895C24.4634 6.18837 21.0598 10.2108 21.0598 10.5203C21.0598 10.8297 21.0598 11.4485 21.3692 11.4485C21.6787 11.4485 23.8446 10.5203 23.8446 10.8297V11.7579C23.8446 12.3768 12.0866 22.2783 11.7772 22.2783C11.4678 22.2783 9.61123 21.0406 9.30181 21.0406Z" stroke="#F69F3A" stroke-width="0.7"/>
<path d="M36.8754 53.5298C34.1525 54.0249 33.8843 51.8795 34.0906 50.745L42.445 42.3906L45.5392 45.1754L36.8754 53.5298Z" fill="#B29476" stroke="#B29476" stroke-width="0.7"/>
<path d="M49.2522 35.8928L47.7051 37.1305L50.1804 39.9153L51.7276 38.3682L49.2522 35.8928Z" fill="#56545A" stroke="#56545A" stroke-width="0.7"/>
<path d="M48.6332 48.2697L39.3506 38.9871L44.3013 34.0364L53.584 43.319L48.6332 48.2697Z" fill="#DFDFE1" stroke="#DFDFE1" stroke-width="0.7"/>
</svg>
