<svg width="59" height="59" viewBox="0 0 59 59" fill="none" xmlns="http://www.w3.org/2000/svg">
<rect width="58.79" height="58.79" rx="12" fill="#924772"/>
<path d="M23.5355 5.56953L18.2754 10.5203V8.04489L22.9167 4.95068L23.5355 5.56953Z" fill="#FFDD54" stroke="#FFDD54" stroke-width="0.7"/>
<path d="M23.5354 5.56958L18.2752 10.8297L17.9658 11.1392H21.06V10.5203C21.06 10.5203 23.5354 6.80726 23.8448 6.18842C24.1542 5.56958 23.5354 5.56958 23.5354 5.56958Z" fill="#FFB454" stroke="#FFB454" stroke-width="0.7"/>
<path d="M7.44562 22.8972C5.21779 25.3726 4.24827 25.3726 4.04199 25.0631V24.1349C6.51736 21.9689 7.6519 20.3187 8.06447 19.803L9.61157 20.4218L7.44562 22.8972Z" fill="#F69F3A" stroke="#F69F3A" stroke-width="0.7"/>
<path d="M14.2529 14.8523L12.0869 17.3277L15.4905 19.1842L17.6565 17.3277L14.2529 14.8523Z" fill="#EC8600" stroke="#EC8600" stroke-width="0.7"/>
<path d="M17.6373 11.4487L16.4189 13.3052L19.8226 15.4711L23.5356 12.0675V10.8298L21.3697 11.4487H19.8226H17.6373Z" fill="#EC8600" stroke="#EC8600" stroke-width="0.7"/>
<path d="M13.6338 15.1615L11.7773 17.3275C11.5297 14.8521 10.2302 13.7176 9.61133 13.305L11.4679 11.4485L13.015 12.6862L13.6338 15.1615Z" fill="#FFB454" stroke="#FFB454" stroke-width="0.7"/>
<path d="M19.8225 15.1617C19.8225 15.4711 17.6566 17.0182 17.6566 17.0182C15.8 15.4711 14.8718 14.9554 14.2529 14.5429L15.8 13.3052C15.8 13.3052 17.6566 13.3052 18.2754 13.6146C18.8942 13.924 19.8225 14.8523 19.8225 15.1617Z" fill="#FFB454" stroke="#FFB454" stroke-width="0.7"/>
<path d="M17.9658 10.5204L16.1093 12.9958C14.2528 11.4487 14.5622 9.38587 13.9434 8.97331L18.2753 5.26025C18.2753 5.26025 19.2035 5.56967 19.2035 5.8791C19.2035 6.18852 17.0376 6.49794 17.0376 7.11678C17.0376 7.73562 17.9658 8.04504 17.9658 8.04504V10.5204Z" fill="#FFB454" stroke="#FFB454" stroke-width="0.7"/>
<path d="M11.777 22.2783L9.30166 21.0406L10.2299 19.1841L12.0865 17.3276C13.943 18.5653 14.5618 18.7715 15.1807 19.1841L13.0147 21.0406L11.777 22.2783Z" fill="#FFB454" stroke="#FFB454" stroke-width="0.7"/>
<path d="M11.4676 17.637C11.4676 18.8747 9.30169 20.1124 9.30169 20.1124L8.06401 19.8029L7.13574 16.0899C7.13574 16.0899 8.99227 13.9239 9.61111 13.3051C10.23 12.6863 11.4676 16.3993 11.4676 17.637Z" fill="#FFDD54" stroke="#FFDD54" stroke-width="0.7"/>
<path d="M15.7997 12.0675C16.1091 13.924 13.6337 14.8522 13.6337 14.8522L13.0149 12.6863L11.4678 11.4486L14.2526 8.66382C14.2526 8.66382 15.4902 10.2109 15.7997 12.0675Z" fill="#FFDD54" stroke="#FFDD54" stroke-width="0.7"/>
<path d="M9.30181 21.0406C8.99239 21.0406 6.2076 24.4442 5.27933 25.0631C4.35107 25.6819 3.11339 24.7536 4.04165 23.8254C4.96991 22.8971 8.06412 20.1123 8.06412 19.8029C8.06412 19.4935 7.13586 17.0181 7.13586 16.0898C7.13586 15.1616 17.9656 4.95068 18.275 4.95068C18.5844 4.95068 19.2033 5.56953 19.2033 5.87895C19.2033 6.18837 17.0373 6.80721 17.0373 7.11663C17.0373 7.42605 17.9656 8.04489 18.275 8.04489C18.5844 8.04489 22.6069 4.95068 22.9163 4.95068C23.2258 4.95068 23.8446 5.56951 24.154 5.87894L24.154 5.87895C24.4634 6.18837 21.0598 10.2108 21.0598 10.5203C21.0598 10.8297 21.0598 11.4485 21.3692 11.4485C21.6787 11.4485 23.8446 10.5203 23.8446 10.8297V11.7579C23.8446 12.3768 12.0866 22.2783 11.7772 22.2783C11.4678 22.2783 9.61123 21.0406 9.30181 21.0406Z" stroke="#F69F3A" stroke-width="0.7"/>
<path d="M53.2406 36.5117L47.9805 41.4624V38.987L52.6218 35.8928L53.2406 36.5117Z" fill="#FFDD54" stroke="#FFDD54" stroke-width="0.7"/>
<path d="M53.2405 36.5117L47.9803 41.7719L47.6709 42.0813H50.7651V41.4625C50.7651 41.4625 53.2405 37.7494 53.5499 37.1306C53.8593 36.5117 53.2405 36.5117 53.2405 36.5117Z" fill="#FFB454" stroke="#FFB454" stroke-width="0.7"/>
<path d="M37.1507 53.8393C34.9229 56.3147 33.9534 56.3147 33.7471 56.0053V55.077C36.2224 52.9111 37.357 51.2608 37.7695 50.7451L39.3166 51.364L37.1507 53.8393Z" fill="#F69F3A" stroke="#F69F3A" stroke-width="0.7"/>
<path d="M43.9579 45.7944L41.792 48.2698L45.1956 50.1263L47.3616 48.2698L43.9579 45.7944Z" fill="#EC8600" stroke="#EC8600" stroke-width="0.7"/>
<path d="M47.3424 42.3906L46.124 44.2471L49.5277 46.413L53.2407 43.0094V41.7717L51.0748 42.3906H49.5277H47.3424Z" fill="#EC8600" stroke="#EC8600" stroke-width="0.7"/>
<path d="M43.3389 46.1037L41.4824 48.2696C41.2348 45.7943 39.9352 44.6597 39.3164 44.2472L41.1729 42.3906L42.72 43.6283L43.3389 46.1037Z" fill="#FFB454" stroke="#FFB454" stroke-width="0.7"/>
<path d="M49.5276 46.1038C49.5276 46.4133 47.3616 47.9604 47.3616 47.9604C45.5051 46.4133 44.5768 45.8976 43.958 45.485L45.5051 44.2473C45.5051 44.2473 47.3616 44.2473 47.9805 44.5567C48.5993 44.8662 49.5276 45.7944 49.5276 46.1038Z" fill="#FFB454" stroke="#FFB454" stroke-width="0.7"/>
<path d="M47.6709 41.4623L45.8144 43.9377C43.9579 42.3906 44.2673 40.3278 43.6484 39.9152L47.9803 36.2021C47.9803 36.2021 48.9086 36.5116 48.9086 36.821C48.9086 37.1304 46.7426 37.4398 46.7426 38.0587C46.7426 38.6775 47.6709 38.9869 47.6709 38.9869V41.4623Z" fill="#FFB454" stroke="#FFB454" stroke-width="0.7"/>
<path d="M41.4821 53.2205L39.0067 51.9828L39.935 50.1262L41.7915 48.2697C43.6481 49.5074 44.2669 49.7137 44.8857 50.1262L42.7198 51.9828L41.4821 53.2205Z" fill="#FFB454" stroke="#FFB454" stroke-width="0.7"/>
<path d="M41.1727 48.5791C41.1727 49.8168 39.0068 51.0545 39.0068 51.0545L37.7691 50.7451L36.8408 47.032C36.8408 47.032 38.6973 44.8661 39.3162 44.2472C39.935 43.6284 41.1727 47.3415 41.1727 48.5791Z" fill="#FFDD54" stroke="#FFDD54" stroke-width="0.7"/>
<path d="M45.5047 43.0096C45.8142 44.8661 43.3388 45.7944 43.3388 45.7944L42.72 43.6284L41.1729 42.3907L43.9576 39.606C43.9576 39.606 45.1953 41.1531 45.5047 43.0096Z" fill="#FFDD54" stroke="#FFDD54" stroke-width="0.7"/>
<path d="M39.0069 51.9827C38.6975 51.9827 35.9127 55.3863 34.9844 56.0052C34.0561 56.624 32.8185 55.6958 33.7467 54.7675C34.675 53.8392 37.7692 51.0545 37.7692 50.745C37.7692 50.4356 36.8409 47.9602 36.8409 47.032C36.8409 46.1037 47.6707 35.8928 47.9801 35.8928C48.2895 35.8928 48.9084 36.5117 48.9084 36.8211C48.9084 37.1305 46.7424 37.7493 46.7424 38.0588C46.7424 38.3682 47.6707 38.987 47.9801 38.987C48.2895 38.987 52.312 35.8928 52.6214 35.8928C52.9308 35.8928 53.5497 36.5116 53.8591 36.8211L53.8591 36.8211C54.1685 37.1305 50.7649 41.153 50.7649 41.4624C50.7649 41.7718 50.7649 42.3907 51.0743 42.3907C51.3837 42.3907 53.5497 41.4624 53.5497 41.7718V42.7001C53.5497 43.3189 41.7917 53.2204 41.4823 53.2204C41.1728 53.2204 39.3163 51.9827 39.0069 51.9827Z" stroke="#F69F3A" stroke-width="0.7"/>
</svg>
