<svg width="59" height="59" viewBox="0 0 59 59" fill="none" xmlns="http://www.w3.org/2000/svg">
<rect width="58.79" height="58.79" rx="12" fill="#924772"/>
<path d="M4.96522 22.8054C6.01175 23.8519 7.15296 23.0551 7.58901 22.5222C8.75183 21.3594 8.8025 20.8286 7.87225 19.8984C6.942 18.9681 5.50564 19.6636 4.97269 20.1965C4.48818 20.5841 3.91868 21.7589 4.96522 22.8054Z" fill="#E5A307" stroke="#E5A307"/>
<path d="M8.46781 21.6574L11.2295 18.8958L8.90387 16.5701L6.14219 19.3318C8.03176 19.4772 8.56471 21.076 8.46781 21.6574Z" fill="#924B0B" stroke="#924B0B"/>
<path d="M14.4277 20.3492L10.9393 16.8608L10.2125 17.5875L12.2474 19.6224L11.666 20.2039C10.9683 21.3667 11.3753 22.2388 11.666 22.5295C12.0536 22.9171 13.0614 23.4597 13.9916 22.5295C14.9219 21.5992 14.6699 20.6884 14.4277 20.3492Z" fill="#E9912F" stroke="#E9912F"/>
<path d="M7.45023 13.3724L10.9387 16.8608L10.2119 17.5875L8.17699 15.5526L7.45023 16.2794C6.28742 16.9771 5.41531 16.5701 5.12461 16.2794C4.73701 15.8918 4.19436 14.884 5.12461 13.9538C6.05486 13.0235 7.11108 13.1301 7.45023 13.3724Z" fill="#EAB600" stroke="#EAB600"/>
<path d="M22.5673 8.72106C22.5673 8.72106 23.5847 4.50587 23.4394 4.36052C23.294 4.21517 11.0845 16.7154 11.0845 16.7154L12.8287 18.4596L22.5673 8.72106Z" fill="#C7CAD3" stroke="#C7CAD3"/>
<path d="M19.2624 5.12576C19.2624 5.12576 23.1485 4.06984 23.2938 4.2152C23.4392 4.36056 10.9389 16.5701 10.9389 16.5701L9.37853 15.0097L19.2624 5.12576Z" fill="#DBE2EA" stroke="#DBE2EA"/>
<path d="M35.9076 53.1288C36.9541 54.1753 38.0953 53.3785 38.5314 52.8455C39.6942 51.6827 39.7449 51.152 38.8146 50.2217C37.8844 49.2915 36.448 49.987 35.9151 50.5199C35.4306 50.9075 34.8611 52.0822 35.9076 53.1288Z" fill="#E5A307" stroke="#E5A307"/>
<path d="M39.4102 51.9807L42.1719 49.219L39.8463 46.8934L37.0846 49.655C38.9741 49.8004 39.5071 51.3993 39.4102 51.9807Z" fill="#924B0B" stroke="#924B0B"/>
<path d="M45.3701 50.6724L41.8816 47.184L41.1549 47.9108L43.1898 49.9457L42.6084 50.5271C41.9107 51.6899 42.3177 52.562 42.6084 52.8527C42.996 53.2403 44.0038 53.783 44.934 52.8527C45.8643 51.9225 45.6123 51.0116 45.3701 50.6724Z" fill="#E9912F" stroke="#E9912F"/>
<path d="M38.3926 43.6956L41.8811 47.184L41.1543 47.9108L39.1194 45.8759L38.3926 46.6026C37.2298 47.3003 36.3577 46.8933 36.067 46.6026C35.6794 46.215 35.1367 45.2073 36.067 44.277C36.9972 43.3468 38.0535 43.4533 38.3926 43.6956Z" fill="#EAB600" stroke="#EAB600"/>
<path d="M53.5096 39.0444C53.5096 39.0444 54.5271 34.8292 54.3818 34.6839C54.2364 34.5385 42.0269 47.0388 42.0269 47.0388L43.7711 48.783L53.5096 39.0444Z" fill="#C7CAD3" stroke="#C7CAD3"/>
<path d="M50.2048 35.4491C50.2048 35.4491 54.0908 34.3932 54.2362 34.5386C54.3816 34.6839 41.8813 46.8934 41.8813 46.8934L40.3209 45.333L50.2048 35.4491Z" fill="#DBE2EA" stroke="#DBE2EA"/>
</svg>
