<svg width="59" height="59" viewBox="0 0 59 59" fill="none" xmlns="http://www.w3.org/2000/svg">
<rect width="58.79" height="58.79" rx="12" fill="#924772"/>
<path d="M15.7831 43.1608C15.2256 42.6033 15.2256 38.1435 15.2256 38.1435C29.497 44.8332 40.6837 39.6301 44.7718 36.4711V41.4884C41.6499 45.9482 16.3405 43.7183 15.7831 43.1608Z" fill="#E7A24D" stroke="#E7A24D"/>
<path d="M15.4518 37.0285C18.2392 33.1262 26.0439 32.5687 29.9462 32.5687C35.521 32.7546 46.336 33.9067 44.998 37.0285C43.6601 40.1504 33.6627 40.9309 28.8312 40.9309C24.9289 40.9309 13.4808 39.7879 15.4518 37.0285Z" fill="#F6C358" stroke="#F6C358"/>
<path d="M19.1278 36.4711C18.5703 35.9136 18.5703 31.4538 18.5703 31.4538C32.8417 38.1435 44.0284 32.9404 48.1165 29.7814V34.7987C44.9947 39.2585 19.6853 37.0286 19.1278 36.4711Z" fill="#E7A24D" stroke="#E7A24D"/>
<path d="M18.7965 30.3388C21.5839 26.4365 29.3886 25.879 33.2909 25.879C38.8657 26.0649 49.6807 27.217 48.3428 30.3388C47.0048 33.4607 37.0074 34.2412 32.176 34.2412C28.2736 34.2412 16.8256 33.0982 18.7965 30.3388Z" fill="#F6C358" stroke="#F6C358"/>
<path d="M13.5526 30.8964C12.9951 30.3389 12.9951 25.8791 12.9951 25.8791C27.2665 32.5688 38.4532 27.3657 42.5413 24.2067V29.2239C39.4195 33.6838 14.1101 31.4539 13.5526 30.8964Z" fill="#E7A24D" stroke="#E7A24D"/>
<path d="M13.2214 24.764C16.0087 20.8617 23.8134 20.3042 27.7157 20.3042C33.2905 20.49 44.1055 21.6421 42.7676 24.764C41.4296 27.8859 31.4322 28.6663 26.6008 28.6663C22.6984 28.6663 11.2504 27.5234 13.2214 24.764Z" fill="#F6C358" stroke="#F6C358"/>
<path d="M16.8973 24.2066C16.3398 23.6491 16.3398 19.1893 16.3398 19.1893C30.6112 25.879 41.7979 20.6759 45.8861 17.5168V22.5341C42.7642 26.9939 17.4548 24.764 16.8973 24.2066Z" fill="#E7A24D" stroke="#E7A24D"/>
<path d="M16.5661 18.0743C19.3535 14.172 27.1581 13.6145 31.0605 13.6145C36.6352 13.8003 47.4502 14.9524 46.1123 18.0743C44.7744 21.1962 34.777 21.9766 29.9455 21.9766C26.0432 21.9766 14.5951 20.8337 16.5661 18.0743Z" fill="#F6C358" stroke="#F6C358"/>
</svg>
