<svg width="59" height="59" viewBox="0 0 59 59" fill="none" xmlns="http://www.w3.org/2000/svg">
<rect width="58.79" height="58.79" rx="12" fill="#924772"/>
<path d="M21.0208 52.6071C21.9286 51.6992 21.2374 50.7093 20.7751 50.331C19.7664 49.3223 19.306 49.2784 18.499 50.0853C17.6921 50.8923 18.2954 52.1383 18.7577 52.6006C19.0939 53.0209 20.1129 53.5149 21.0208 52.6071Z" fill="#E5A307" stroke="#E5A307"/>
<path d="M20.0245 49.5681L17.6289 47.1725L15.6115 49.1899L18.0072 51.5855C18.1333 49.9464 19.5202 49.4841 20.0245 49.5681Z" fill="#924B0B" stroke="#924B0B"/>
<path d="M18.89 44.3986L15.8639 47.4247L16.4943 48.0551L18.2595 46.2899L18.7639 46.7943C19.7726 47.3995 20.5291 47.0464 20.7813 46.7943C21.1175 46.458 21.5882 45.5838 20.7813 44.7769C19.9743 43.9699 19.1842 44.1885 18.89 44.3986Z" fill="#E9912F" stroke="#E9912F"/>
<path d="M12.8376 50.4509L15.8636 47.4248L16.4941 48.0552L14.7289 49.8204L15.3593 50.4509C15.9645 51.4596 15.6115 52.2161 15.3593 52.4683C15.0231 52.8045 14.1489 53.2752 13.3419 52.4683C12.535 51.6613 12.6274 50.7451 12.8376 50.4509Z" fill="#EAB600" stroke="#EAB600"/>
<path d="M8.80374 37.3379C8.80374 37.3379 5.14723 36.4553 5.02114 36.5814C4.89506 36.7075 15.7385 47.2987 15.7385 47.2987L17.2515 45.7857L8.80374 37.3379Z" fill="#C7CAD3" stroke="#C7CAD3"/>
<path d="M5.68351 40.2045C5.68351 40.2045 4.76754 36.8335 4.89364 36.7074C5.01973 36.5813 15.611 47.4248 15.611 47.4248L14.2574 48.7784L5.68351 40.2045Z" fill="#DBE2EA" stroke="#DBE2EA"/>
<path d="M37.8889 21.4138C37.6133 21.1382 37.6133 18.9335 37.6133 18.9335C44.6685 22.2406 50.1988 19.6684 52.2198 18.1067V20.587C50.6765 22.7918 38.1645 21.6894 37.8889 21.4138Z" fill="#E7A24D" stroke="#E7A24D"/>
<path d="M37.7251 18.3823C39.1031 16.4531 42.9614 16.1775 44.8906 16.1775C47.6466 16.2694 52.9931 16.8389 52.3317 18.3823C51.6702 19.9256 46.7279 20.3114 44.3394 20.3114C42.4102 20.3114 36.7507 19.7464 37.7251 18.3823Z" fill="#F6C358" stroke="#F6C358"/>
<path d="M39.5432 18.1067C39.2676 17.8311 39.2676 15.6263 39.2676 15.6263C46.3228 18.9335 51.8531 16.3613 53.8741 14.7996V17.2799C52.3308 19.4847 39.8188 18.3823 39.5432 18.1067Z" fill="#E7A24D" stroke="#E7A24D"/>
<path d="M39.3794 15.0751C40.7574 13.146 44.6157 12.8704 46.5449 12.8704C49.3009 12.9622 54.6474 13.5318 53.986 15.0751C53.3245 16.6185 48.3822 17.0043 45.9937 17.0043C44.0645 17.0043 38.405 16.4393 39.3794 15.0751Z" fill="#F6C358" stroke="#F6C358"/>
<path d="M36.7873 15.3507C36.5117 15.0751 36.5117 12.8704 36.5117 12.8704C43.567 16.1775 49.0972 13.6053 51.1183 12.0436V14.5239C49.5749 16.7287 37.0629 15.6263 36.7873 15.3507Z" fill="#E7A24D" stroke="#E7A24D"/>
<path d="M36.6236 12.3191C38.0015 10.39 41.8599 10.1144 43.789 10.1144C46.545 10.2062 51.8915 10.7758 51.2301 12.3191C50.5687 13.8625 45.6263 14.2483 43.2378 14.2483C41.3087 14.2483 35.6492 13.6833 36.6236 12.3191Z" fill="#F6C358" stroke="#F6C358"/>
<path d="M38.4406 12.0436C38.165 11.768 38.165 9.56324 38.165 9.56324C45.2203 12.8704 50.7506 10.2982 52.7716 8.73645V11.2168C51.2283 13.4216 38.7162 12.3192 38.4406 12.0436Z" fill="#E7A24D" stroke="#E7A24D"/>
<path d="M38.2769 9.01201C39.6549 7.08285 43.5132 6.80725 45.4424 6.80725C48.1983 6.89912 53.5449 7.46868 52.8834 9.01201C52.222 10.5553 47.2797 10.9412 44.8912 10.9412C42.962 10.9412 37.3025 10.3761 38.2769 9.01201Z" fill="#F6C358" stroke="#F6C358"/>
<path d="M19.5129 33.3502C17.1431 28.7929 19.4369 24.7674 20.8801 23.3242C25.8931 18.0834 30.7009 20.2344 33.7543 22.9824C36.0328 25.0331 36.3747 29.2487 36.3747 31.0716C37.6508 32.3476 38.6534 33.73 38.8812 34.2616L37.628 35.5149C35.3494 34.5123 35.919 35.8567 36.4887 36.6542L35.1215 38.0214C32.5694 37.1099 33.2986 38.4012 33.9822 39.1607L32.2732 40.8697L28.9692 38.0214C28.1717 38.1353 22.4751 39.0468 19.5129 33.3502Z" fill="#D1E0DD" stroke="#D1E0DD" stroke-width="2"/>
<circle cx="26.7002" cy="33.6768" r="2.41685" transform="rotate(-45 26.7002 33.6768)" fill="#748080"/>
<circle cx="31.4853" cy="28.8916" r="2.41685" transform="rotate(-45 31.4853 28.8916)" fill="#748080"/>
<path d="M32.5113 32.8793C32.7847 33.1527 32.1695 33.9047 31.8277 34.2465C31.1897 34.8845 30.6504 34.5123 30.4605 34.2465C30.0048 33.6085 30.5744 32.9173 30.9162 32.6514C31.258 32.3097 32.3973 32.7654 32.5113 32.8793Z" fill="#62676A" stroke="#62676A"/>
</svg>
