<svg width="914" height="529" viewBox="0 0 914 529" fill="none" xmlns="http://www.w3.org/2000/svg">
<rect x="491" y="1" width="422" height="422" fill="#151C29" stroke="#E9C78E" stroke-width="2"/>
<path d="M637.298 155.069L697.744 215.516L637.298 275.962" stroke="#DFBE87" stroke-width="4"/>
<path d="M642.617 169.093L689.523 215.999L643.584 261.938" stroke="#DFBE87" stroke-width="4"/>
<path d="M655.673 156.036L702.579 202.943L748.519 157.004" stroke="#DFBE87" stroke-width="4"/>
<path d="M749.003 275.478L702.096 228.572L656.157 274.511" stroke="#DFBE87" stroke-width="4"/>
<path d="M762.059 262.422L715.153 215.516L761.092 169.576" stroke="#DFBE87" stroke-width="4"/>
<path d="M641.649 150.717L702.096 211.163L762.542 150.717" stroke="#DFBE87" stroke-width="4"/>
<path d="M763.026 280.797L702.58 220.351L642.134 280.797" stroke="#DFBE87" stroke-width="4"/>
<path d="M767.378 276.445L706.932 215.999L767.378 155.553" stroke="#DFBE87" stroke-width="4"/>
<rect x="1" y="4" width="422.083" height="422.083" fill="#151C29" stroke="#E9C78E" stroke-width="2"/>
<path d="M208.622 126.121V211.622H123.121" stroke="#DFBE87" stroke-width="4"/>
<path d="M202.466 139.801V206.15H137.485" stroke="#DFBE87" stroke-width="4"/>
<path d="M220.934 139.801V206.15H285.914" stroke="#DFBE87" stroke-width="4"/>
<path d="M202.466 290.282V223.934H137.485" stroke="#DFBE87" stroke-width="4"/>
<path d="M220.934 290.282V223.934H285.914" stroke="#DFBE87" stroke-width="4"/>
<path d="M214.778 126.121V211.622H300.278" stroke="#DFBE87" stroke-width="4"/>
<path d="M208.622 303.962V218.462H123.121" stroke="#DFBE87" stroke-width="4"/>
<path d="M214.778 303.962V218.462H300.278" stroke="#DFBE87" stroke-width="4"/>
<rect x="1" y="442.447" width="422.083" height="85.5527" fill="#151B29" stroke="#F6D396" stroke-width="2"/>
</svg>
