<svg width="34" height="29" viewBox="0 0 34 29" fill="none" xmlns="http://www.w3.org/2000/svg">
<path d="M3.5 27.5C3 27 3 23 3 23C15.8 29 25.8333 24.3333 29.5 21.5V26C26.7 30 4 28 3.5 27.5Z" fill="#E7A24D" stroke="#E7A24D"/>
<path d="M3.20291 22C5.70291 18.5 12.7029 18 16.2029 18C21.2029 18.1667 30.9029 19.2 29.7029 22C28.5029 24.8 19.5362 25.5 15.2029 25.5C11.7029 25.5 1.43514 24.4749 3.20291 22Z" fill="#F6C358" stroke="#F6C358"/>
<path d="M6.5 21.5C6 21 6 17 6 17C18.8 23 28.8333 18.3333 32.5 15.5V20C29.7 24 7 22 6.5 21.5Z" fill="#E7A24D" stroke="#E7A24D"/>
<path d="M6.20291 16C8.70291 12.5 15.7029 12 19.2029 12C24.2029 12.1667 33.9029 13.2 32.7029 16C31.5029 18.8 22.5362 19.5 18.2029 19.5C14.7029 19.5 4.43514 18.4749 6.20291 16Z" fill="#F6C358" stroke="#F6C358"/>
<path d="M1.5 16.5C1 16 1 12 1 12C13.8 18 23.8333 13.3333 27.5 10.5V15C24.7 19 2 17 1.5 16.5Z" fill="#E7A24D" stroke="#E7A24D"/>
<path d="M1.20291 11C3.70291 7.5 10.7029 7 14.2029 7C19.2029 7.16667 28.9029 8.2 27.7029 11C26.5029 13.8 17.5362 14.5 13.2029 14.5C9.70291 14.5 -0.564857 13.4749 1.20291 11Z" fill="#F6C358" stroke="#F6C358"/>
<path d="M4.5 10.5C4 10 4 6 4 6C16.8 12 26.8333 7.33333 30.5 4.5V9C27.7 13 5 11 4.5 10.5Z" fill="#E7A24D" stroke="#E7A24D"/>
<path d="M4.20291 5C6.70291 1.5 13.7029 1 17.2029 1C22.2029 1.16667 31.9029 2.2 30.7029 5C29.5029 7.8 20.5362 8.5 16.2029 8.5C12.7029 8.5 2.43514 7.47487 4.20291 5Z" fill="#F6C358" stroke="#F6C358"/>
</svg>
