<svg width="29" height="34" viewBox="0 0 29 34" fill="none" xmlns="http://www.w3.org/2000/svg">
<path d="M7.00438 9H1.00438V25C1.00438 25 14.0044 33 15.0044 33C16.0044 33 15.0044 17 15.0044 17L7.00438 9Z" fill="#898890" stroke="#898890" stroke-width="0.7"/>
<path d="M22.4329 9H28.0044V25C28.0044 25 15.5044 33 15.0044 33C14.5044 33 15.0044 17 15.0044 17L22.4329 9Z" fill="#898890" stroke="#898890" stroke-width="0.7"/>
<path d="M15.0044 1C15.0044 1 0.713745 8.5 1.00438 8.5H7.00437C8.00438 8.5 14.5044 16.5 15.0044 16.5C15.5044 16.5 21.5044 9 22.0044 8.5C22.5044 8 28.0044 9 28.0044 8.5C28.0044 8 15.0044 1 15.0044 1Z" fill="#ACABB1" stroke="#ACABB1" stroke-width="0.7"/>
<path d="M9.00438 23H7.00438V21H8.00438L9.00438 23Z" fill="#86858D" stroke="#86858D" stroke-width="0.7"/>
<path d="M4.4148 12.1035L2.90084 13.4104L1.59396 11.8965L2.35094 11.243L4.4148 12.1035Z" fill="#86858D" stroke="#86858D" stroke-width="0.7"/>
<path d="M24.0044 15L24.0044 17L22.0044 17L22.0044 16L24.0044 15Z" fill="#86858D" stroke="#86858D" stroke-width="0.7"/>
<path d="M20.0044 24.5H18.0044V22L19.0044 22.5L20.0044 24.5Z" fill="#A2A1A7" stroke="#A2A1A7" stroke-width="0.7"/>
<path d="M5.70368 15.7479L5.00438 13.8741L7.34659 13L7.22779 14.1117L5.70368 15.7479Z" fill="#A2A1A7" stroke="#A2A1A7" stroke-width="0.7"/>
</svg>
