<svg width="44" height="44" viewBox="0 0 44 44" fill="none" xmlns="http://www.w3.org/2000/svg">
<path d="M7.02267 36.8518C8.71378 38.5429 10.5579 37.2554 11.2625 36.3941C13.1415 34.5151 13.2234 33.6575 11.7202 32.1543C10.217 30.6511 7.89596 31.7749 7.03475 32.6361C6.25183 33.2625 5.33156 35.1607 7.02267 36.8518Z" fill="#E5A307" stroke="#E5A307"/>
<path d="M12.6829 34.9966L17.1455 30.5339L13.3875 26.7759L8.92483 31.2386C11.9782 31.4734 12.8394 34.0571 12.6829 34.9966Z" fill="#924B0B" stroke="#924B0B"/>
<path d="M22.3134 32.8827L16.6764 27.2457L15.502 28.4201L18.7902 31.7084L17.8507 32.6479C16.7233 34.5269 17.381 35.9361 17.8507 36.4059C18.4771 37.0322 20.1056 37.9091 21.6088 36.4059C23.112 34.9027 22.7049 33.4308 22.3134 32.8827Z" fill="#E9912F" stroke="#E9912F"/>
<path d="M11.0391 21.6085L16.6762 27.2455L15.5018 28.4199L12.2135 25.1316L11.0391 26.306C9.16013 27.4334 7.75087 26.7758 7.28112 26.306C6.65478 25.6797 5.77791 24.0512 7.28112 22.548C8.78433 21.0448 10.4911 21.217 11.0391 21.6085Z" fill="#EAB600" stroke="#EAB600"/>
<path d="M35.4666 14.0925C35.4666 14.0925 37.1107 7.2811 36.8758 7.04623C36.6409 6.81135 16.9113 27.0107 16.9113 27.0107L19.7298 29.8293L35.4666 14.0925Z" fill="#C7CAD3" stroke="#C7CAD3"/>
<path d="M30.1262 8.2827C30.1262 8.2827 36.4058 6.57641 36.6406 6.8113C36.8755 7.04619 16.6761 26.7758 16.6761 26.7758L14.1546 24.2543L30.1262 8.2827Z" fill="#DBE2EA" stroke="#DBE2EA"/>
</svg>
