<svg width="148" height="69" viewBox="0 0 148 69" fill="none" xmlns="http://www.w3.org/2000/svg">
<path d="M119.588 57.5C115.188 58.3 114.755 54.8333 115.088 53L128.588 39.5L133.588 44L119.588 57.5Z" fill="#B29476" stroke="#B29476" stroke-width="0.7"/>
<path d="M139.588 29L137.088 31L141.088 35.5L143.588 33L139.588 29Z" fill="#56545A" stroke="#56545A" stroke-width="0.7"/>
<path d="M138.588 49L123.588 34L131.588 26L146.588 41L138.588 49Z" fill="#DFDFE1" stroke="#DFDFE1" stroke-width="0.7"/>
<path d="M28 56.5C32.4 57.3 32.8333 53.8333 32.5 52L19 38.5L14 43L28 56.5Z" fill="#B29476" stroke="#B29476" stroke-width="0.7"/>
<path d="M8 28L10.5 30L6.5 34.5L4 32L8 28Z" fill="#56545A" stroke="#56545A" stroke-width="0.7"/>
<path d="M9 48L24 33L16 25L1 40L9 48Z" fill="#DFDFE1" stroke="#DFDFE1" stroke-width="0.7"/>
<path d="M42.5 54.5V45.5L74 61L105.5 45.5V54.5L74 67.5L42.5 54.5Z" fill="#212A3B" stroke="#DAC8A4" stroke-width="2"/>
<path d="M120 1H28V38.3109L74 61L120 38.3109V1Z" fill="#212A3B" stroke="#DAC8A4" stroke-width="2"/>
<path d="M35 1V42" stroke="#DAC8A4" stroke-width="2"/>
<path d="M113 0V41" stroke="#DAC8A4" stroke-width="2"/>
</svg>
