<svg width="191" height="191" viewBox="0 0 191 191" fill="none" xmlns="http://www.w3.org/2000/svg">
<circle cx="95" cy="96" r="85" fill="#202D3E" stroke="#F5D394" stroke-width="2"/>
<circle cx="95" cy="95" r="73" fill="#1F2638" stroke="#F5D394" stroke-width="2"/>
<path d="M189.5 94.5L179.5 87.5V102L189.5 94.5Z" fill="#F1D498" stroke="#F1D498"/>
<path d="M189.5 94.5L166.5 79C169.3 93.4 167.333 106.667 166 111.5L189.5 94.5Z" stroke="#F1D498"/>
<path d="M1 94.5L11 87.5V102L1 94.5Z" fill="#F1D498" stroke="#F1D498"/>
<path d="M1 94.5L24 79C21.2 93.4 23.1667 106.667 24.5 111.5L1 94.5Z" stroke="#F1D498"/>
<path d="M94.5 1L87.5 11L102 11L94.5 1Z" fill="#F1D498" stroke="#F1D498"/>
<path d="M94.5 0.999999L79 24C93.4 21.2 106.667 23.1667 111.5 24.5L94.5 0.999999Z" stroke="#F1D498"/>
<path d="M96 189.5L103 179.5L88.5 179.5L96 189.5Z" fill="#F1D498" stroke="#F1D498"/>
<path d="M96 189.5L111.5 166.5C97.1 169.3 83.8333 167.333 79 166L96 189.5Z" stroke="#F1D498"/>
<path d="M43.5 43L146 146.5" stroke="#F1D498" stroke-width="3"/>
<path d="M146.5 43.5L43 146" stroke="#F1D498" stroke-width="3"/>
<path d="M95.0823 28.7892L94.642 43.3166L91.1202 39.7948L93.3214 28.7892L95.0823 28.7892Z" fill="#FFDD54" stroke="#FFDD54" stroke-width="0.7"/>
<path d="M95.0822 28.7892L95.0822 43.7568L95.0822 44.6372L99.4845 40.235L98.604 39.3545C98.604 39.3545 96.8431 30.5501 96.4029 29.2294C95.9627 27.9087 95.0822 28.7892 95.0822 28.7892Z" fill="#FFB454" stroke="#FFB454" stroke-width="0.7"/>
<path d="M96.8431 76.3333C97.1953 83.0247 95.8159 84.404 95.0822 84.2573L93.7615 82.9366C94.2017 76.3333 93.468 72.3713 93.3213 71.0506L96.4029 69.7299L96.8431 76.3333Z" fill="#F69F3A" stroke="#F69F3A" stroke-width="0.7"/>
<path d="M95.0823 55.2026L95.5225 61.8059L103.006 59.6048L103.447 53.8819L95.0823 55.2026Z" fill="#EC8600" stroke="#EC8600" stroke-width="0.7"/>
<path d="M95.0547 45.5452L95.9627 49.9199L103.887 48.159L104.327 38.0339L102.566 36.273L100.365 40.235L98.1638 42.4361L95.0547 45.5452Z" fill="#EC8600" stroke="#EC8600" stroke-width="0.7"/>
<path d="M94.6421 56.5232L95.0823 62.2461C91.2083 59.0765 87.7452 59.3113 86.2778 59.6048V54.3221L90.2398 53.8819L94.6421 56.5232Z" fill="#FFB454" stroke="#FFB454" stroke-width="0.7"/>
<path d="M103.446 47.7188C103.887 48.159 103.006 53.4417 103.006 53.4417C98.1638 53.8819 96.1094 54.4689 94.642 54.7623L95.0822 50.8003C95.0822 50.8003 97.7236 48.159 99.0442 47.7188C100.365 47.2785 103.006 47.2785 103.446 47.7188Z" fill="#FFB454" stroke="#FFB454" stroke-width="0.7"/>
<path d="M94.2018 43.7568L95.0823 49.9199C90.2398 50.3601 87.7452 46.9851 86.2778 47.2786L87.1582 35.8327C87.1582 35.8327 88.9191 34.9523 89.3594 35.3925C89.7996 35.8327 87.1582 39.3545 88.0387 40.235C88.9191 41.1154 90.68 40.235 90.68 40.235L94.2018 43.7568Z" fill="#FFB454" stroke="#FFB454" stroke-width="0.7"/>
<path d="M102.126 69.2897L96.8431 71.0506L95.5225 67.0886V61.8059C99.9247 60.9255 101.099 60.3385 102.566 60.045L102.126 65.7679V69.2897Z" fill="#FFB454" stroke="#FFB454" stroke-width="0.7"/>
<path d="M95.0822 63.1266C96.8431 64.8875 95.5224 69.7299 95.5224 69.7299L93.3213 71.0506L86.7179 67.0886C86.7179 67.0886 86.2777 61.3657 86.2777 59.6048C86.2777 57.8439 93.3213 61.3657 95.0822 63.1266Z" fill="#FFDD54" stroke="#FFDD54" stroke-width="0.7"/>
<path d="M93.3214 49.0395C96.4029 51.2406 94.2018 56.083 94.2018 56.083L90.2398 53.8819L86.2778 54.3221L86.2778 46.3981C86.2778 46.3981 90.2398 46.8383 93.3214 49.0395Z" fill="#FFDD54" stroke="#FFDD54" stroke-width="0.7"/>
<path d="M96.8431 71.0506C96.4029 71.4908 97.2834 80.2953 96.8431 82.4964C96.4029 84.6975 93.3214 85.1378 93.3214 82.4964C93.3214 79.8551 93.7616 71.4908 93.3214 71.0506C92.8811 70.6104 88.0387 68.4093 86.718 67.0886C85.3973 65.7679 86.2778 35.8328 86.718 35.3925C87.1582 34.9523 88.9191 34.9523 89.3593 35.3925C89.7996 35.8328 87.5985 39.7948 88.0387 40.235C88.4789 40.6752 90.68 40.235 91.1202 39.7948C91.5605 39.3545 92.8811 29.2294 93.3214 28.7892C93.7616 28.349 95.5224 28.349 96.4029 28.349L96.4029 28.349C97.2834 28.349 98.1638 38.9143 98.604 39.3545C99.0443 39.7948 99.9247 40.6752 100.365 40.235C100.805 39.7948 102.566 35.3925 103.006 35.8328L104.327 37.1534C105.207 38.0339 102.566 68.8495 102.126 69.2897C101.686 69.7299 97.2834 70.6104 96.8431 71.0506Z" stroke="#F69F3A" stroke-width="0.7"/>
<path d="M90.8988 113.494C94.337 108.528 98.0617 111.425 99.4942 113.494L99.4942 139.281L90.4213 139.758L90.8988 113.494Z" fill="#B29476" stroke="#B29476" stroke-width="0.7"/>
<path d="M99.0167 159.814L99.4942 155.516L91.3763 155.039V159.814H99.0167Z" fill="#56545A" stroke="#56545A" stroke-width="0.7"/>
<path d="M80.8709 139.758H109.522V155.039H80.8709V139.758Z" fill="#DFDFE1" stroke="#DFDFE1" stroke-width="0.7"/>
<path d="M147.879 78.0026C158.427 81.3334 161.064 90.9558 161.064 95.3506C161.411 110.964 150.815 115.009 141.981 115.474C135.389 115.821 128.45 109.923 125.674 107.147C121.788 107.147 118.157 106.569 117 106.106L117 102.29C121.996 100.347 119.082 99.1671 117 98.8202L117 94.6567C122.274 92.1585 119.197 91.3027 117 91.1871L117 85.9826L126.368 85.2887C127.409 83.9009 134.695 73.839 147.879 78.0026Z" fill="#D1E0DD" stroke="#D1E0DD" stroke-width="2"/>
<circle cx="136.438" cy="88.4497" r="5.20441" transform="rotate(90 136.438 88.4497)" fill="#748080"/>
<circle cx="136.438" cy="103.022" r="5.20441" transform="rotate(90 136.438 103.022)" fill="#748080"/>
<path d="M128.805 98.5115C127.972 98.5115 127.764 96.4298 127.764 95.3889C127.764 93.4459 129.152 93.1915 129.846 93.3071C131.511 93.5847 131.696 95.5045 131.581 96.4298C131.581 97.4707 129.152 98.5115 128.805 98.5115Z" fill="#62676A" stroke="#62676A"/>
<path d="M83.4999 95.6286C83.4999 92.3688 80.4816 91.8324 78.9724 91.9833C75.3503 91.9833 74.4448 92.731 74.4448 95.6286C74.4448 98.5263 77.765 99.6801 79.4251 99.6801C80.7834 99.8311 83.4999 98.8885 83.4999 95.6286Z" fill="#E5A307" stroke="#E5A307"/>
<path d="M76.2559 91.9606H67.6536V99.2047H76.2559C73.5394 96.0354 75.1995 92.7152 76.2559 91.9606Z" fill="#924B0B" stroke="#924B0B"/>
<path d="M64.937 84.7165V95.5827H67.2008V89.2441H69.0118C71.9095 88.5197 72.6339 86.5276 72.6339 85.622C72.6339 84.4147 71.9095 82 69.0118 82C66.1142 82 65.0879 83.811 64.937 84.7165Z" fill="#E9912F" stroke="#E9912F"/>
<path d="M64.937 106.449V95.5827H67.2008V101.921H69.4646C72.3622 102.646 73.0866 104.638 73.0866 105.543C73.0866 106.751 72.3622 109.165 69.4646 109.165C66.5669 109.165 65.0879 107.354 64.937 106.449Z" fill="#EAB600" stroke="#EAB600"/>
<path d="M34.1496 90.1496C34.1496 90.1496 26 95.1299 26 95.5827C26 96.0354 64.4843 95.5827 64.4843 95.5827V90.1496H34.1496Z" fill="#C7CAD3" stroke="#C7CAD3"/>
<path d="M33.6969 100.896C33.6969 100.896 26 96.4882 26 96.0354C26 95.5826 64.4843 96.0354 64.4843 96.0354V100.896L33.6969 100.896Z" fill="#DBE2EA" stroke="#DBE2EA"/>
</svg>
