<svg width="28" height="34" viewBox="0 0 28 34" fill="none" xmlns="http://www.w3.org/2000/svg">
<path d="M4 27C2 27 1.16667 31 1 33H14V30C9.6 30 8.83333 28 9 27H4Z" fill="#A4D772" stroke="#A4D772" stroke-width="0.7"/>
<path d="M7.5 33V27" stroke="#E17E4F" stroke-width="2"/>
<path d="M9 27C9 29 12.3333 29.8333 14 30V25H10L9 27Z" fill="#EEBDA9" stroke="#EEBDA9" stroke-width="0.7"/>
<path d="M14 10V25H10L7 20V10H14Z" fill="#F6DFB9" stroke="#F6DFB9" stroke-width="0.7"/>
<path d="M14 1V5H9V3L11 1H14Z" fill="#674D55" stroke="#674D55" stroke-width="0.7"/>
<path d="M1 12C1 15.2 5 17.3333 7 18V10H14V5H10C5.5 6 1 8 1 12Z" fill="#90776F" stroke="#90776F" stroke-width="0.7"/>
<g filter="url(#filter0_i_43_66)">
<path d="M24 27C26 27 26.8333 31 27 33H14V30C18.4 30 19.1667 28 19 27H24Z" fill="#A4D772" stroke="#A4D772" stroke-width="0.7"/>
<path d="M20.5 33V27" stroke="#E17E4F" stroke-width="2"/>
<path d="M19 27C19 29 15.6667 29.8333 14 30V25H18L19 27Z" fill="#EEBDA9" stroke="#EEBDA9" stroke-width="0.7"/>
<path d="M14 10V25H18L21 20V10H14Z" fill="#F6DFB9" stroke="#F6DFB9" stroke-width="0.7"/>
<path d="M14 1V5H19V3L17 1H14Z" fill="#674D55" stroke="#674D55" stroke-width="0.7"/>
<path d="M27 12C27 15.2 23 17.3333 21 18V10H14V5H18C22.5 6 27 8 27 12Z" fill="#90776F" stroke="#90776F" stroke-width="0.7"/>
</g>
<defs>
<filter id="filter0_i_43_66" x="13.65" y="0.650002" width="13.7304" height="36.7" filterUnits="userSpaceOnUse" color-interpolation-filters="sRGB">
<feFlood flood-opacity="0" result="BackgroundImageFix"/>
<feBlend mode="normal" in="SourceGraphic" in2="BackgroundImageFix" result="shape"/>
<feColorMatrix in="SourceAlpha" type="matrix" values="0 0 0 0 0 0 0 0 0 0 0 0 0 0 0 0 0 0 127 0" result="hardAlpha"/>
<feOffset dy="4"/>
<feGaussianBlur stdDeviation="2"/>
<feComposite in2="hardAlpha" operator="arithmetic" k2="-1" k3="1"/>
<feColorMatrix type="matrix" values="0 0 0 0 0 0 0 0 0 0 0 0 0 0 0 0 0 0 0.25 0"/>
<feBlend mode="normal" in2="shape" result="effect1_innerShadow_43_66"/>
</filter>
</defs>
</svg>
