<svg width="35" height="34" viewBox="0 0 35 34" fill="none" xmlns="http://www.w3.org/2000/svg">
<path d="M33.0312 1.5L24.5312 9.5V5.5L32.0312 0.5L33.0312 1.5Z" fill="#FFDD54" stroke="#FFDD54" stroke-width="0.7"/>
<path d="M33.0312 1.5L24.5312 10L24.0312 10.5H29.0312V9.5C29.0312 9.5 33.0312 3.5 33.5312 2.5C34.0312 1.5 33.0312 1.5 33.0312 1.5Z" fill="#FFB454" stroke="#FFB454" stroke-width="0.7"/>
<path d="M7.03125 29.5C3.43125 33.5 1.86458 33.5 1.53125 33V31.5C5.53125 28 7.36458 25.3333 8.03125 24.5L10.5312 25.5L7.03125 29.5Z" fill="#F69F3A" stroke="#F69F3A" stroke-width="0.7"/>
<path d="M18.0312 16.5L14.5312 20.5L20.0312 23.5L23.5312 20.5L18.0312 16.5Z" fill="#EC8600" stroke="#EC8600" stroke-width="0.7"/>
<path d="M23.5 11L21.5312 14L27.0312 17.5L33.0312 12V10L29.5312 11H27.0312H23.5Z" fill="#EC8600" stroke="#EC8600" stroke-width="0.7"/>
<path d="M17.0312 17L14.0312 20.5C13.6312 16.5 11.5312 14.6667 10.5312 14L13.5312 11L16.0312 13L17.0312 17Z" fill="#FFB454" stroke="#FFB454" stroke-width="0.7"/>
<path d="M27.0312 17C27.0312 17.5 23.5312 20 23.5312 20C20.5312 17.5 19.0312 16.6667 18.0312 16L20.5312 14C20.5312 14 23.5312 14 24.5312 14.5C25.5312 15 27.0312 16.5 27.0312 17Z" fill="#FFB454" stroke="#FFB454" stroke-width="0.7"/>
<path d="M24.0312 9.5L21.0312 13.5C18.0312 11 18.5312 7.66667 17.5312 7.00001L24.5312 1C24.5312 1 26.0312 1.5 26.0312 2C26.0312 2.5 22.5312 3 22.5312 4C22.5312 5 24.0312 5.5 24.0312 5.5V9.5Z" fill="#FFB454" stroke="#FFB454" stroke-width="0.7"/>
<path d="M14.0312 28.5L10.0312 26.5L11.5312 23.5L14.5312 20.5C17.5312 22.5 18.5312 22.8333 19.5312 23.5L16.0312 26.5L14.0312 28.5Z" fill="#FFB454" stroke="#FFB454" stroke-width="0.7"/>
<path d="M13.5312 21C13.5312 23 10.0312 25 10.0312 25L8.03125 24.5L6.53125 18.5C6.53125 18.5 9.53125 15 10.5312 14C11.5312 13 13.5312 19 13.5312 21Z" fill="#FFDD54" stroke="#FFDD54" stroke-width="0.7"/>
<path d="M20.5312 12C21.0312 15 17.0312 16.5 17.0312 16.5L16.0312 13L13.5312 11L18.0312 6.5C18.0312 6.5 20.0312 9 20.5312 12Z" fill="#FFDD54" stroke="#FFDD54" stroke-width="0.7"/>
<path d="M10.0312 26.5C9.53125 26.5 5.03125 32 3.53125 33C2.03125 34 0.0312499 32.5 1.53125 31C3.03125 29.5 8.03125 25 8.03125 24.5C8.03125 24 6.53125 20 6.53125 18.5C6.53125 17 24.0312 0.5 24.5313 0.5C25.0313 0.5 26.0313 1.5 26.0313 2C26.0312 2.5 22.5313 3.5 22.5313 4C22.5312 4.5 24.0312 5.5 24.5313 5.5C25.0313 5.5 31.5312 0.5 32.0313 0.5C32.5313 0.5 33.5312 1.5 34.0312 2C34.5312 2.5 29.0313 9 29.0313 9.5C29.0312 10 29.0312 11 29.5312 11C30.0312 11 33.5312 9.5 33.5312 10V11.5C33.5312 12.5 14.5313 28.5 14.0312 28.5C13.5312 28.5 10.5312 26.5 10.0312 26.5Z" stroke="#F69F3A" stroke-width="0.7"/>
</svg>
