<svg width="36" height="20" viewBox="0 0 36 20" fill="none" xmlns="http://www.w3.org/2000/svg">
<path d="M13.2086 19C9.20861 15 11.5419 11.3333 13.2086 10H30.7086C27.5086 10 26.3753 12.6667 26.2086 14C26.2086 17.2 29.2086 18.6667 30.7086 19H13.2086Z" fill="#A77760" stroke="#785544" stroke-width="0.7"/>
<path d="M26.2086 14C26.2086 11.2 29.2086 10.1667 30.7086 10C31.7086 10 35.2086 10.5 35.2086 14.5C35.2086 17.7 32.2086 18.8333 30.7086 19C29.2086 19 26.2086 17.5 26.2086 14Z" fill="#F3D69E" stroke="#E0C590" stroke-width="0.7"/>
<path d="M8.20861 10C4.20861 6 6.54194 2.33333 8.20861 1H25.7086C22.5086 1 21.3753 3.66667 21.2086 5C21.2086 8.2 24.2086 9.66667 25.7086 10H8.20861Z" fill="#A77760" stroke="#785544" stroke-width="0.7"/>
<path d="M21.2086 5C21.2086 2.2 24.2086 1.16667 25.7086 1C26.7086 1 30.2086 1.5 30.2086 5.5C30.2086 8.7 27.2086 9.83333 25.7086 10C24.2086 10 21.2086 8.5 21.2086 5Z" fill="#F3D69E" stroke="#E0C590" stroke-width="0.7"/>
<path d="M3.20861 19C-0.791393 15 1.54194 11.3333 3.20861 10H20.7086C17.5086 10 16.3753 12.6667 16.2086 14C16.2086 17.2 19.2086 18.6667 20.7086 19H3.20861Z" fill="#A77760" stroke="#785544" stroke-width="0.7"/>
<path d="M16.2086 14C16.2086 11.2 19.2086 10.1667 20.7086 10C21.7086 10 25.2086 10.5 25.2086 14.5C25.2086 17.7 22.2086 18.8333 20.7086 19C19.2086 19 16.2086 17.5 16.2086 14Z" fill="#F3D69E" stroke="#E0C590" stroke-width="0.7"/>
</svg>
