<svg width="59" height="59" viewBox="0 0 59 59" fill="none" xmlns="http://www.w3.org/2000/svg">
<rect width="58.7907" height="58.7907" rx="12" fill="#FFD02A"/>
<path d="M11.4884 21.0408C8.73794 18.2903 10.3424 15.7691 11.4884 14.8523H23.5216C21.3212 14.8523 20.5419 16.6859 20.4273 17.6027C20.4273 19.8031 22.4902 20.8116 23.5216 21.0408H11.4884Z" fill="#A77760" stroke="#785544" stroke-width="0.7"/>
<path d="M20.4277 17.6027C20.4277 15.6774 22.4906 14.9669 23.522 14.8523C24.2096 14.8523 26.6162 15.1961 26.6162 17.9465C26.6162 20.1469 24.5534 20.9262 23.522 21.0408C22.4906 21.0408 20.4277 20.0094 20.4277 17.6027Z" fill="#F3D69E" stroke="#E0C590" stroke-width="0.7"/>
<path d="M8.04991 14.8523C5.29947 12.1019 6.90389 9.58063 8.04991 8.66382H20.0831C17.8827 8.66382 17.1035 10.4974 16.9889 11.4143C16.9889 13.6146 19.0517 14.6231 20.0831 14.8523H8.04991Z" fill="#A77760" stroke="#785544" stroke-width="0.7"/>
<path d="M16.9893 11.4143C16.9893 9.48895 19.0521 8.77842 20.0835 8.66382C20.7711 8.66382 23.1778 9.00762 23.1778 11.7581C23.1778 13.9584 21.1149 14.7377 20.0835 14.8523C19.0521 14.8523 16.9893 13.8209 16.9893 11.4143Z" fill="#F3D69E" stroke="#E0C590" stroke-width="0.7"/>
<path d="M4.61241 21.041C1.86197 18.2906 3.46639 15.7694 4.61241 14.8525H16.6456C14.4452 14.8525 13.666 16.6862 13.5514 17.603C13.5514 19.8033 15.6142 20.8118 16.6456 21.041H4.61241Z" fill="#A77760" stroke="#785544" stroke-width="0.7"/>
<path d="M13.5518 17.603C13.5518 15.6777 15.6146 14.9671 16.646 14.8525C17.3336 14.8525 19.7403 15.1963 19.7403 17.9468C19.7403 20.1471 17.6774 20.9264 16.646 21.041C15.6146 21.041 13.5518 20.0096 13.5518 17.603Z" fill="#F3D69E" stroke="#E0C590" stroke-width="0.7"/>
<path d="M38.3016 38.4824H34.0391V49.8491C34.0391 49.8491 43.2745 55.5324 43.9849 55.5324C44.6953 55.5324 43.9849 44.1658 43.9849 44.1658L38.3016 38.4824Z" fill="#898890" stroke="#898890" stroke-width="0.7"/>
<path d="M49.2617 38.4824H53.2197V49.8491C53.2197 49.8491 44.3395 55.5324 43.9843 55.5324C43.6291 55.5324 43.9843 44.1658 43.9843 44.1658L49.2617 38.4824Z" fill="#898890" stroke="#898890" stroke-width="0.7"/>
<path d="M43.9841 32.7991C43.9841 32.7991 33.8318 38.1272 34.0383 38.1272H38.3008C39.0112 38.1272 43.6289 43.8105 43.9841 43.8105C44.3393 43.8105 48.6018 38.4824 48.957 38.1272C49.3122 37.772 53.2195 38.4824 53.2195 38.1272C53.2195 37.772 43.9841 32.7991 43.9841 32.7991Z" fill="#ACABB1" stroke="#ACABB1" stroke-width="0.7"/>
<path d="M39.7226 48.4282H38.3018V47.0073H39.0122L39.7226 48.4282Z" fill="#86858D" stroke="#86858D" stroke-width="0.7"/>
<path d="M36.462 40.6874L35.3864 41.6158L34.458 40.5403L34.9958 40.0761L36.462 40.6874Z" fill="#86858D" stroke="#86858D" stroke-width="0.7"/>
<path d="M50.3779 42.7447L50.3779 44.1655L48.957 44.1655L48.957 43.4551L50.3779 42.7447Z" fill="#86858D" stroke="#86858D" stroke-width="0.7"/>
<path d="M47.5361 49.4938H46.1152V47.7178L46.8257 48.073L47.5361 49.4938Z" fill="#A2A1A7" stroke="#A2A1A7" stroke-width="0.7"/>
<path d="M37.3778 43.2761L36.881 41.945L38.5449 41.324L38.4605 42.1137L37.3778 43.2761Z" fill="#A2A1A7" stroke="#A2A1A7" stroke-width="0.7"/>
</svg>
