<svg width="59" height="59" viewBox="0 0 59 59" fill="none" xmlns="http://www.w3.org/2000/svg">
<rect width="58.79" height="58.79" rx="12" fill="#FFD02A"/>
<path d="M52.7754 4.76227L49.1162 8.20617V6.48422L52.3449 4.33179L52.7754 4.76227Z" fill="#FFDD54" stroke="#FFDD54" stroke-width="0.7"/>
<path d="M52.7758 4.76245L49.1166 8.42159L48.9014 8.63684H51.0538V8.20635C51.0538 8.20635 52.7758 5.62343 52.991 5.19294C53.2062 4.76245 52.7758 4.76245 52.7758 4.76245Z" fill="#FFB454" stroke="#FFB454" stroke-width="0.7"/>
<path d="M41.5825 16.816C40.0328 18.538 39.3583 18.538 39.2148 18.3227V17.677C40.9368 16.1703 41.726 15.0223 42.013 14.6636L43.0892 15.0941L41.5825 16.816Z" fill="#F69F3A" stroke="#F69F3A" stroke-width="0.7"/>
<path d="M46.3182 11.2197L44.8115 12.9417L47.1792 14.2331L48.6859 12.9417L46.3182 11.2197Z" fill="#EC8600" stroke="#EC8600" stroke-width="0.7"/>
<path d="M48.6727 8.85187L47.8252 10.1433L50.1929 11.65L52.7758 9.28236V8.42139L51.2691 8.85187H50.1929H48.6727Z" fill="#EC8600" stroke="#EC8600" stroke-width="0.7"/>
<path d="M45.887 11.435L44.5956 12.9417C44.4234 11.2197 43.5194 10.4305 43.0889 10.1435L44.3803 8.85205L45.4565 9.71303L45.887 11.435Z" fill="#FFB454" stroke="#FFB454" stroke-width="0.7"/>
<path d="M50.1927 11.435C50.1927 11.6503 48.686 12.7265 48.686 12.7265C47.3946 11.6503 46.7488 11.2915 46.3184 11.0045L47.3946 10.1436C47.3946 10.1436 48.686 10.1436 49.1165 10.3588C49.547 10.574 50.1927 11.2198 50.1927 11.435Z" fill="#FFB454" stroke="#FFB454" stroke-width="0.7"/>
<path d="M48.9007 8.20626L47.6092 9.92821C46.3178 8.85199 46.533 7.41704 46.1025 7.13005L49.116 4.54712C49.116 4.54712 49.7617 4.76236 49.7617 4.97761C49.7617 5.19285 48.255 5.40809 48.255 5.83858C48.255 6.26907 48.9007 6.48431 48.9007 6.48431V8.20626Z" fill="#FFB454" stroke="#FFB454" stroke-width="0.7"/>
<path d="M44.5962 16.3855L42.8742 15.5245L43.52 14.2331L44.8114 12.9416C46.1029 13.8026 46.5334 13.9461 46.9639 14.2331L45.4572 15.5245L44.5962 16.3855Z" fill="#FFB454" stroke="#FFB454" stroke-width="0.7"/>
<path d="M44.3806 13.1569C44.3806 14.0179 42.8739 14.8788 42.8739 14.8788L42.0129 14.6636L41.3672 12.0807C41.3672 12.0807 42.6586 10.574 43.0891 10.1435C43.5196 9.71299 44.3806 12.2959 44.3806 13.1569Z" fill="#FFDD54" stroke="#FFDD54" stroke-width="0.7"/>
<path d="M47.3943 9.28248C47.6095 10.5739 45.8876 11.2197 45.8876 11.2197L45.4571 9.71296L44.3809 8.85199L46.3181 6.91479C46.3181 6.91479 47.179 7.99101 47.3943 9.28248Z" fill="#FFDD54" stroke="#FFDD54" stroke-width="0.7"/>
<path d="M42.8742 15.5245C42.6589 15.5245 40.7217 17.8921 40.076 18.3226C39.4303 18.7531 38.5693 18.1074 39.215 17.4617C39.8608 16.8159 42.0132 14.8787 42.0132 14.6635C42.0132 14.4482 41.3675 12.7263 41.3675 12.0806C41.3675 11.4348 48.901 4.33179 49.1162 4.33179C49.3315 4.33179 49.762 4.76227 49.762 4.97752C49.762 5.19276 48.2553 5.62325 48.2553 5.83849C48.2553 6.05374 48.901 6.48422 49.1162 6.48422C49.3315 6.48422 52.1296 4.33179 52.3449 4.33179C52.5601 4.33179 52.9906 4.76227 53.2059 4.97752C53.4211 5.19276 51.0534 7.99093 51.0534 8.20617C51.0534 8.42142 51.0534 8.8519 51.2687 8.8519C51.4839 8.8519 52.9906 8.20617 52.9906 8.42142V9.06715C52.9906 9.49763 44.8114 16.3854 44.5961 16.3854C44.3809 16.3854 43.0894 15.5245 42.8742 15.5245Z" stroke="#F69F3A" stroke-width="0.7"/>
<path d="M7.25067 54.7814C5.04448 55.1826 4.8272 53.4443 4.99434 52.5251L11.7633 45.7561L14.2704 48.0124L7.25067 54.7814Z" fill="#B29476" stroke="#B29476" stroke-width="0.7"/>
<path d="M17.2789 40.4912L16.0254 41.494L18.031 43.7504L19.2845 42.4968L17.2789 40.4912Z" fill="#56545A" stroke="#56545A" stroke-width="0.7"/>
<path d="M16.777 50.5194L9.25586 42.9983L13.2671 38.9871L20.7882 46.5082L16.777 50.5194Z" fill="#DFDFE1" stroke="#DFDFE1" stroke-width="0.7"/>
<path d="M23.9606 37.4538C21.7544 37.8549 21.5372 36.1167 21.7043 35.1975L28.4733 28.4285L30.9803 30.6848L23.9606 37.4538Z" fill="#B29476" stroke="#B29476" stroke-width="0.7"/>
<path d="M33.9889 23.1636L32.7354 24.1664L34.741 26.4227L35.9945 25.1692L33.9889 23.1636Z" fill="#56545A" stroke="#56545A" stroke-width="0.7"/>
<path d="M33.4869 33.1918L25.9658 25.6707L29.9771 21.6594L37.4982 29.1805L33.4869 33.1918Z" fill="#DFDFE1" stroke="#DFDFE1" stroke-width="0.7"/>
</svg>
