<svg width="59" height="59" viewBox="0 0 59 59" fill="none" xmlns="http://www.w3.org/2000/svg">
<rect width="58.79" height="58.79" rx="12" fill="#FFD02A"/>
<path d="M25.2626 4.38592L19.5439 9.76819V7.07705L24.5898 3.71313L25.2626 4.38592Z" fill="#FFDD54" stroke="#FFDD54" stroke-width="0.7"/>
<path d="M25.2631 4.38574L19.5444 10.1044L19.208 10.4408H22.5719V9.76801C22.5719 9.76801 25.2631 5.73131 25.5995 5.05853C25.9358 4.38574 25.2631 4.38574 25.2631 4.38574Z" fill="#FFB454" stroke="#FFB454" stroke-width="0.7"/>
<path d="M7.77062 23.2238C5.3486 25.9149 4.29457 25.9149 4.07031 25.5785V24.5693C6.76145 22.2146 7.99488 20.4205 8.44341 19.8599L10.1254 20.5326L7.77062 23.2238Z" fill="#F69F3A" stroke="#F69F3A" stroke-width="0.7"/>
<path d="M15.1711 14.4775L12.8164 17.1687L16.5167 19.187L18.8715 17.1687L15.1711 14.4775Z" fill="#EC8600" stroke="#EC8600" stroke-width="0.7"/>
<path d="M18.8509 10.7773L17.5264 12.7956L21.2267 15.1504L25.2634 11.4501V10.1045L22.9086 10.7773H21.2267H18.8509Z" fill="#EC8600" stroke="#EC8600" stroke-width="0.7"/>
<path d="M14.4991 14.814L12.4807 17.1688C12.2116 14.4777 10.7988 13.2442 10.126 12.7957L12.1443 10.7773L13.8263 12.1229L14.4991 14.814Z" fill="#FFB454" stroke="#FFB454" stroke-width="0.7"/>
<path d="M21.2259 14.814C21.2259 15.1504 18.8712 16.8324 18.8712 16.8324C16.8529 15.1504 15.8437 14.5897 15.1709 14.1412L16.8529 12.7957C16.8529 12.7957 18.8712 12.7957 19.544 13.132C20.2168 13.4684 21.2259 14.4776 21.2259 14.814Z" fill="#FFB454" stroke="#FFB454" stroke-width="0.7"/>
<path d="M19.2081 9.76822L17.1897 12.4594C15.1714 10.7774 15.5077 8.53479 14.835 8.08627L19.5444 4.04956C19.5444 4.04956 20.5536 4.38595 20.5536 4.72234C20.5536 5.05874 18.1989 5.39513 18.1989 6.06791C18.1989 6.74069 19.2081 7.07709 19.2081 7.07709V9.76822Z" fill="#FFB454" stroke="#FFB454" stroke-width="0.7"/>
<path d="M12.4804 22.551L9.78922 21.2055L10.7984 19.1871L12.8167 17.1688C14.8351 18.5143 15.5079 18.7386 16.1807 19.1871L13.8259 21.2055L12.4804 22.551Z" fill="#FFB454" stroke="#FFB454" stroke-width="0.7"/>
<path d="M12.1441 17.505C12.1441 18.8505 9.78931 20.1961 9.78931 20.1961L8.44375 19.8597L7.43457 15.823C7.43457 15.823 9.45292 13.4683 10.1257 12.7955C10.7985 12.1227 12.1441 16.1594 12.1441 17.505Z" fill="#FFDD54" stroke="#FFDD54" stroke-width="0.7"/>
<path d="M16.854 11.4501C17.1904 13.4684 14.4993 14.4776 14.4993 14.4776L13.8265 12.1229L12.1445 10.7773L15.1721 7.74976C15.1721 7.74976 16.5176 9.43172 16.854 11.4501Z" fill="#FFDD54" stroke="#FFDD54" stroke-width="0.7"/>
<path d="M9.78897 21.2055C9.45258 21.2055 6.42505 24.9058 5.41587 25.5786C4.4067 26.2514 3.06113 25.2422 4.07031 24.233C5.07948 23.2239 8.4434 20.1963 8.4434 19.8599C8.4434 19.5235 7.43422 16.8324 7.43422 15.8232C7.43422 14.8141 19.2079 3.71313 19.5443 3.71313C19.8807 3.71313 20.5535 4.38592 20.5535 4.72231C20.5535 5.0587 18.1988 5.73149 18.1988 6.06788C18.1988 6.40427 19.2079 7.07705 19.5443 7.07705C19.8807 7.07705 24.2538 3.71313 24.5902 3.71313C24.9266 3.71313 25.5994 4.38592 25.9358 4.72231C26.2722 5.0587 22.5719 9.43179 22.5719 9.76819C22.5719 10.1046 22.5719 10.7774 22.9082 10.7774C23.2446 10.7774 25.5994 9.76819 25.5994 10.1046V11.1138C25.5994 11.7865 12.8165 22.5511 12.4801 22.5511C12.1437 22.5511 10.1254 21.2055 9.78897 21.2055Z" stroke="#F69F3A" stroke-width="0.7"/>
<path d="M38.8576 39.0166H34.6582V50.2151C34.6582 50.2151 43.757 55.8143 44.4569 55.8143C45.1568 55.8143 44.4569 44.6158 44.4569 44.6158L38.8576 39.0166Z" fill="#898890" stroke="#898890" stroke-width="0.7"/>
<path d="M49.6562 39.0166H53.5557V50.2151C53.5557 50.2151 44.8069 55.8143 44.4569 55.8143C44.107 55.8143 44.4569 44.6158 44.4569 44.6158L49.6562 39.0166Z" fill="#898890" stroke="#898890" stroke-width="0.7"/>
<path d="M44.457 33.4175C44.457 33.4175 34.4549 38.6668 34.6583 38.6668H38.8578C39.5577 38.6668 44.107 44.266 44.457 44.266C44.8069 44.266 49.0064 39.0167 49.3563 38.6668C49.7063 38.3168 53.5557 39.0167 53.5557 38.6668C53.5557 38.3168 44.457 33.4175 44.457 33.4175Z" fill="#ACABB1" stroke="#ACABB1" stroke-width="0.7"/>
<path d="M40.2572 48.8153H38.8574V47.4155H39.5573L40.2572 48.8153Z" fill="#86858D" stroke="#86858D" stroke-width="0.7"/>
<path d="M37.0456 41.1889L35.986 42.1036L35.0713 41.0439L35.6011 40.5866L37.0456 41.1889Z" fill="#86858D" stroke="#86858D" stroke-width="0.7"/>
<path d="M50.7553 43.2162L50.7553 44.616L49.3555 44.616L49.3555 43.9161L50.7553 43.2162Z" fill="#86858D" stroke="#86858D" stroke-width="0.7"/>
<path d="M47.9564 49.8652H46.5566V48.1155L47.2565 48.4654L47.9564 49.8652Z" fill="#A2A1A7" stroke="#A2A1A7" stroke-width="0.7"/>
<path d="M37.9468 43.7394L37.4574 42.428L39.0967 41.8162L39.0135 42.5942L37.9468 43.7394Z" fill="#A2A1A7" stroke="#A2A1A7" stroke-width="0.7"/>
</svg>
