<svg width="59" height="59" viewBox="0 0 59 59" fill="none" xmlns="http://www.w3.org/2000/svg">
<rect width="58.79" height="58.79" rx="12" fill="#FFD02A"/>
<path d="M25.2626 4.38592L19.5439 9.76819V7.07705L24.5898 3.71313L25.2626 4.38592Z" fill="#FFDD54" stroke="#FFDD54" stroke-width="0.7"/>
<path d="M25.2631 4.38574L19.5444 10.1044L19.208 10.4408H22.5719V9.76801C22.5719 9.76801 25.2631 5.73131 25.5995 5.05853C25.9358 4.38574 25.2631 4.38574 25.2631 4.38574Z" fill="#FFB454" stroke="#FFB454" stroke-width="0.7"/>
<path d="M7.77062 23.2238C5.3486 25.9149 4.29457 25.9149 4.07031 25.5785V24.5693C6.76145 22.2146 7.99488 20.4205 8.44341 19.8599L10.1254 20.5326L7.77062 23.2238Z" fill="#F69F3A" stroke="#F69F3A" stroke-width="0.7"/>
<path d="M15.1711 14.4775L12.8164 17.1687L16.5167 19.187L18.8715 17.1687L15.1711 14.4775Z" fill="#EC8600" stroke="#EC8600" stroke-width="0.7"/>
<path d="M18.8509 10.7773L17.5264 12.7956L21.2267 15.1504L25.2634 11.4501V10.1045L22.9086 10.7773H21.2267H18.8509Z" fill="#EC8600" stroke="#EC8600" stroke-width="0.7"/>
<path d="M14.4991 14.814L12.4807 17.1688C12.2116 14.4777 10.7988 13.2442 10.126 12.7957L12.1443 10.7773L13.8263 12.1229L14.4991 14.814Z" fill="#FFB454" stroke="#FFB454" stroke-width="0.7"/>
<path d="M21.2259 14.814C21.2259 15.1504 18.8712 16.8324 18.8712 16.8324C16.8529 15.1504 15.8437 14.5897 15.1709 14.1412L16.8529 12.7957C16.8529 12.7957 18.8712 12.7957 19.544 13.132C20.2168 13.4684 21.2259 14.4776 21.2259 14.814Z" fill="#FFB454" stroke="#FFB454" stroke-width="0.7"/>
<path d="M19.2081 9.76822L17.1897 12.4594C15.1714 10.7774 15.5077 8.53479 14.835 8.08627L19.5444 4.04956C19.5444 4.04956 20.5536 4.38595 20.5536 4.72234C20.5536 5.05874 18.1989 5.39513 18.1989 6.06791C18.1989 6.74069 19.2081 7.07709 19.2081 7.07709V9.76822Z" fill="#FFB454" stroke="#FFB454" stroke-width="0.7"/>
<path d="M12.4804 22.551L9.78922 21.2055L10.7984 19.1871L12.8167 17.1688C14.8351 18.5143 15.5079 18.7386 16.1807 19.1871L13.8259 21.2055L12.4804 22.551Z" fill="#FFB454" stroke="#FFB454" stroke-width="0.7"/>
<path d="M12.1441 17.5051C12.1441 18.8507 9.78931 20.1962 9.78931 20.1962L8.44375 19.8598L7.43457 15.8231C7.43457 15.8231 9.45292 13.4684 10.1257 12.7956C10.7985 12.1228 12.1441 16.1595 12.1441 17.5051Z" fill="#FFDD54" stroke="#FFDD54" stroke-width="0.7"/>
<path d="M16.854 11.4501C17.1904 13.4684 14.4993 14.4776 14.4993 14.4776L13.8265 12.1229L12.1445 10.7773L15.1721 7.74976C15.1721 7.74976 16.5176 9.43172 16.854 11.4501Z" fill="#FFDD54" stroke="#FFDD54" stroke-width="0.7"/>
<path d="M9.78897 21.2055C9.45258 21.2055 6.42505 24.9058 5.41587 25.5786C4.4067 26.2514 3.06113 25.2422 4.07031 24.233C5.07948 23.2239 8.4434 20.1963 8.4434 19.8599C8.4434 19.5235 7.43422 16.8324 7.43422 15.8232C7.43422 14.8141 19.2079 3.71313 19.5443 3.71313C19.8807 3.71313 20.5535 4.38592 20.5535 4.72231C20.5535 5.0587 18.1988 5.73149 18.1988 6.06788C18.1988 6.40427 19.2079 7.07705 19.5443 7.07705C19.8807 7.07705 24.2538 3.71313 24.5902 3.71313C24.9266 3.71313 25.5994 4.38592 25.9358 4.72231C26.2722 5.0587 22.5719 9.43179 22.5719 9.76819C22.5719 10.1046 22.5719 10.7774 22.9082 10.7774C23.2446 10.7774 25.5994 9.76819 25.5994 10.1046V11.1138C25.5994 11.7865 12.8165 22.5511 12.4801 22.5511C12.1437 22.5511 10.1254 21.2055 9.78897 21.2055Z" stroke="#F69F3A" stroke-width="0.7"/>
<path d="M53.7294 4.38592L48.0107 9.76819V7.07705L53.0566 3.71313L53.7294 4.38592Z" fill="#FFDD54" stroke="#FFDD54" stroke-width="0.7"/>
<path d="M53.7299 4.38574L48.0112 10.1044L47.6748 10.4408H51.0387V9.76801C51.0387 9.76801 53.7299 5.73131 54.0662 5.05853C54.4026 4.38574 53.7299 4.38574 53.7299 4.38574Z" fill="#FFB454" stroke="#FFB454" stroke-width="0.7"/>
<path d="M36.2374 23.2238C33.8154 25.9149 32.7614 25.9149 32.5371 25.5785V24.5693C35.2282 22.2146 36.4617 20.4205 36.9102 19.8599L38.5922 20.5326L36.2374 23.2238Z" fill="#F69F3A" stroke="#F69F3A" stroke-width="0.7"/>
<path d="M43.6379 14.4775L41.2832 17.1687L44.9835 19.187L47.3383 17.1687L43.6379 14.4775Z" fill="#EC8600" stroke="#EC8600" stroke-width="0.7"/>
<path d="M47.3177 10.7773L45.9932 12.7956L49.6935 15.1504L53.7302 11.4501V10.1045L51.3754 10.7773H49.6935H47.3177Z" fill="#EC8600" stroke="#EC8600" stroke-width="0.7"/>
<path d="M42.9659 14.814L40.9475 17.1688C40.6784 14.4777 39.2656 13.2442 38.5928 12.7957L40.6111 10.7773L42.2931 12.1229L42.9659 14.814Z" fill="#FFB454" stroke="#FFB454" stroke-width="0.7"/>
<path d="M49.6927 14.814C49.6927 15.1504 47.338 16.8324 47.338 16.8324C45.3197 15.1504 44.3105 14.5897 43.6377 14.1412L45.3197 12.7957C45.3197 12.7957 47.338 12.7957 48.0108 13.132C48.6836 13.4684 49.6927 14.4776 49.6927 14.814Z" fill="#FFB454" stroke="#FFB454" stroke-width="0.7"/>
<path d="M47.6748 9.76822L45.6565 12.4594C43.6381 10.7774 43.9745 8.53479 43.3018 8.08627L48.0112 4.04956C48.0112 4.04956 49.0204 4.38595 49.0204 4.72234C49.0204 5.05874 46.6657 5.39513 46.6657 6.06791C46.6657 6.74069 47.6748 7.07709 47.6748 7.07709V9.76822Z" fill="#FFB454" stroke="#FFB454" stroke-width="0.7"/>
<path d="M40.9472 22.551L38.256 21.2055L39.2652 19.1871L41.2835 17.1688C43.3019 18.5143 43.9747 18.7386 44.6475 19.1871L42.2927 21.2055L40.9472 22.551Z" fill="#FFB454" stroke="#FFB454" stroke-width="0.7"/>
<path d="M40.6109 17.5051C40.6109 18.8507 38.2561 20.1962 38.2561 20.1962L36.9105 19.8598L35.9014 15.8231C35.9014 15.8231 37.9197 13.4684 38.5925 12.7956C39.2653 12.1228 40.6109 16.1595 40.6109 17.5051Z" fill="#FFDD54" stroke="#FFDD54" stroke-width="0.7"/>
<path d="M45.3208 11.4501C45.6572 13.4684 42.9661 14.4776 42.9661 14.4776L42.2933 12.1229L40.6113 10.7773L43.6389 7.74976C43.6389 7.74976 44.9844 9.43172 45.3208 11.4501Z" fill="#FFDD54" stroke="#FFDD54" stroke-width="0.7"/>
<path d="M38.2558 21.2055C37.9194 21.2055 34.8918 24.9058 33.8827 25.5786C32.8735 26.2514 31.5279 25.2422 32.5371 24.233C33.5463 23.2239 36.9102 20.1963 36.9102 19.8599C36.9102 19.5235 35.901 16.8324 35.901 15.8232C35.901 14.8141 47.6747 3.71313 48.0111 3.71313C48.3475 3.71313 49.0203 4.38592 49.0203 4.72231C49.0203 5.0587 46.6656 5.73149 46.6656 6.06788C46.6656 6.40427 47.6747 7.07705 48.0111 7.07705C48.3475 7.07705 52.7206 3.71313 53.057 3.71313C53.3934 3.71313 54.0662 4.38592 54.4026 4.72231C54.739 5.0587 51.0387 9.43179 51.0387 9.76819C51.0387 10.1046 51.0387 10.7774 51.375 10.7774C51.7114 10.7774 54.0662 9.76819 54.0662 10.1046V11.1138C54.0662 11.7865 41.2833 22.5511 40.9469 22.5511C40.6105 22.5511 38.5922 21.2055 38.2558 21.2055Z" stroke="#F69F3A" stroke-width="0.7"/>
<path d="M25.2626 34.0903L19.5439 39.4725V36.7814L24.5898 33.4175L25.2626 34.0903Z" fill="#FFDD54" stroke="#FFDD54" stroke-width="0.7"/>
<path d="M25.2631 34.0902L19.5444 39.8089L19.208 40.1453H22.5719V39.4725C22.5719 39.4725 25.2631 35.4358 25.5995 34.763C25.9358 34.0902 25.2631 34.0902 25.2631 34.0902Z" fill="#FFB454" stroke="#FFB454" stroke-width="0.7"/>
<path d="M7.77062 52.9281C5.3486 55.6193 4.29457 55.6193 4.07031 55.2829V54.2737C6.76145 51.919 7.99488 50.1249 8.44341 49.5642L10.1254 50.237L7.77062 52.9281Z" fill="#F69F3A" stroke="#F69F3A" stroke-width="0.7"/>
<path d="M15.1711 44.182L12.8164 46.8731L16.5167 48.8915L18.8715 46.8731L15.1711 44.182Z" fill="#EC8600" stroke="#EC8600" stroke-width="0.7"/>
<path d="M18.8509 40.4817L17.5264 42.5001L21.2267 44.8548L25.2634 41.1545V39.809L22.9086 40.4817H21.2267H18.8509Z" fill="#EC8600" stroke="#EC8600" stroke-width="0.7"/>
<path d="M14.4991 44.5184L12.4807 46.8731C12.2116 44.182 10.7988 42.9486 10.126 42.5L12.1443 40.4817L13.8263 41.8273L14.4991 44.5184Z" fill="#FFB454" stroke="#FFB454" stroke-width="0.7"/>
<path d="M21.2259 44.5185C21.2259 44.8549 18.8712 46.5368 18.8712 46.5368C16.8529 44.8549 15.8437 44.2942 15.1709 43.8457L16.8529 42.5001C16.8529 42.5001 18.8712 42.5001 19.544 42.8365C20.2168 43.1729 21.2259 44.1821 21.2259 44.5185Z" fill="#FFB454" stroke="#FFB454" stroke-width="0.7"/>
<path d="M19.2081 39.4726L17.1897 42.1637C15.1714 40.4817 15.5077 38.2391 14.835 37.7906L19.5444 33.7539C19.5444 33.7539 20.5536 34.0903 20.5536 34.4267C20.5536 34.7631 18.1989 35.0995 18.1989 35.7723C18.1989 36.445 19.2081 36.7814 19.2081 36.7814V39.4726Z" fill="#FFB454" stroke="#FFB454" stroke-width="0.7"/>
<path d="M12.4804 52.2555L9.78922 50.9099L10.7984 48.8916L12.8167 46.8732C14.8351 48.2188 15.5079 48.4431 16.1807 48.8916L13.8259 50.9099L12.4804 52.2555Z" fill="#FFB454" stroke="#FFB454" stroke-width="0.7"/>
<path d="M12.1441 47.2094C12.1441 48.555 9.78931 49.9006 9.78931 49.9006L8.44375 49.5642L7.43457 45.5275C7.43457 45.5275 9.45292 43.1727 10.1257 42.5C10.7985 41.8272 12.1441 45.8639 12.1441 47.2094Z" fill="#FFDD54" stroke="#FFDD54" stroke-width="0.7"/>
<path d="M16.854 41.1544C17.1904 43.1728 14.4993 44.1819 14.4993 44.1819L13.8265 41.8272L12.1445 40.4816L15.1721 37.4541C15.1721 37.4541 16.5176 39.1361 16.854 41.1544Z" fill="#FFDD54" stroke="#FFDD54" stroke-width="0.7"/>
<path d="M9.78897 50.9098C9.45258 50.9098 6.42505 54.6102 5.41587 55.2829C4.4067 55.9557 3.06113 54.9466 4.07031 53.9374C5.07948 52.9282 8.4434 49.9007 8.4434 49.5643C8.4434 49.2279 7.43422 46.5368 7.43422 45.5276C7.43422 44.5184 19.2079 33.4175 19.5443 33.4175C19.8807 33.4175 20.5535 34.0903 20.5535 34.4267C20.5535 34.763 18.1988 35.4358 18.1988 35.7722C18.1988 36.1086 19.2079 36.7814 19.5443 36.7814C19.8807 36.7814 24.2538 33.4175 24.5902 33.4175C24.9266 33.4175 25.5994 34.0903 25.9358 34.4267C26.2722 34.763 22.5719 39.1361 22.5719 39.4725C22.5719 39.8089 22.5719 40.4817 22.9082 40.4817C23.2446 40.4817 25.5994 39.4725 25.5994 39.8089V40.8181C25.5994 41.4909 12.8165 52.2554 12.4801 52.2554C12.1437 52.2554 10.1254 50.9098 9.78897 50.9098Z" stroke="#F69F3A" stroke-width="0.7"/>
<path d="M54.3485 34.0903L48.6299 39.4725V36.7814L53.6758 33.4175L54.3485 34.0903Z" fill="#FFDD54" stroke="#FFDD54" stroke-width="0.7"/>
<path d="M54.349 34.0902L48.6303 39.8089L48.2939 40.1453H51.6579V39.4725C51.6579 39.4725 54.349 35.4358 54.6854 34.763C55.0218 34.0902 54.349 34.0902 54.349 34.0902Z" fill="#FFB454" stroke="#FFB454" stroke-width="0.7"/>
<path d="M36.8566 52.9281C34.4345 55.6193 33.3805 55.6193 33.1562 55.2829V54.2737C35.8474 51.919 37.0808 50.1249 37.5293 49.5642L39.2113 50.237L36.8566 52.9281Z" fill="#F69F3A" stroke="#F69F3A" stroke-width="0.7"/>
<path d="M44.2571 44.182L41.9023 46.8731L45.6027 48.8915L47.9574 46.8731L44.2571 44.182Z" fill="#EC8600" stroke="#EC8600" stroke-width="0.7"/>
<path d="M47.9368 40.4817L46.6123 42.5001L50.3126 44.8548L54.3493 41.1545V39.809L51.9946 40.4817H50.3126H47.9368Z" fill="#EC8600" stroke="#EC8600" stroke-width="0.7"/>
<path d="M43.584 44.5184L41.5657 46.8731C41.2966 44.182 39.8837 42.9486 39.2109 42.5L41.2293 40.4817L42.9112 41.8273L43.584 44.5184Z" fill="#FFB454" stroke="#FFB454" stroke-width="0.7"/>
<path d="M50.3119 44.5185C50.3119 44.8549 47.9571 46.5368 47.9571 46.5368C45.9388 44.8549 44.9296 44.2942 44.2568 43.8457L45.9388 42.5001C45.9388 42.5001 47.9571 42.5001 48.6299 42.8365C49.3027 43.1729 50.3119 44.1821 50.3119 44.5185Z" fill="#FFB454" stroke="#FFB454" stroke-width="0.7"/>
<path d="M48.294 39.4726L46.2756 42.1637C44.2573 40.4817 44.5937 38.2391 43.9209 37.7906L48.6304 33.7539C48.6304 33.7539 49.6396 34.0903 49.6396 34.4267C49.6396 34.7631 47.2848 35.0995 47.2848 35.7723C47.2848 36.445 48.294 36.7814 48.294 36.7814V39.4726Z" fill="#FFB454" stroke="#FFB454" stroke-width="0.7"/>
<path d="M41.5663 52.2555L38.8752 50.9099L39.8843 48.8916L41.9027 46.8732C43.921 48.2188 44.5938 48.4431 45.2666 48.8916L42.9119 50.9099L41.5663 52.2555Z" fill="#FFB454" stroke="#FFB454" stroke-width="0.7"/>
<path d="M41.23 47.2094C41.23 48.555 38.8752 49.9006 38.8752 49.9006L37.5297 49.5642L36.5205 45.5275C36.5205 45.5275 38.5389 43.1727 39.2116 42.5C39.8844 41.8272 41.23 45.8639 41.23 47.2094Z" fill="#FFDD54" stroke="#FFDD54" stroke-width="0.7"/>
<path d="M45.939 41.1544C46.2754 43.1728 43.5842 44.1819 43.5842 44.1819L42.9115 41.8272L41.2295 40.4816L44.257 37.4541C44.257 37.4541 45.6026 39.1361 45.939 41.1544Z" fill="#FFDD54" stroke="#FFDD54" stroke-width="0.7"/>
<path d="M38.8749 50.9098C38.5385 50.9098 35.511 54.6102 34.5018 55.2829C33.4926 55.9557 32.1471 54.9466 33.1562 53.9374C34.1654 52.9282 37.5293 49.9007 37.5293 49.5643C37.5293 49.2279 36.5202 46.5368 36.5202 45.5276C36.5202 44.5184 48.2939 33.4175 48.6303 33.4175C48.9667 33.4175 49.6394 34.0903 49.6394 34.4267C49.6394 34.763 47.2847 35.4358 47.2847 35.7722C47.2847 36.1086 48.2939 36.7814 48.6303 36.7814C48.9667 36.7814 53.3397 33.4175 53.6761 33.4175C54.0125 33.4175 54.6853 34.0903 55.0217 34.4267C55.3581 34.763 51.6578 39.1361 51.6578 39.4725C51.6578 39.8089 51.6578 40.4817 51.9942 40.4817C52.3306 40.4817 54.6853 39.4725 54.6853 39.8089V40.8181C54.6853 41.4909 41.9024 52.2554 41.566 52.2554C41.2296 52.2554 39.2113 50.9098 38.8749 50.9098Z" stroke="#F69F3A" stroke-width="0.7"/>
</svg>
