<svg width="59" height="59" viewBox="0 0 59 59" fill="none" xmlns="http://www.w3.org/2000/svg">
<rect width="58.79" height="58.79" rx="12" fill="#FFD02A"/>
<path d="M10.0299 54.4581C7.5545 51.9828 8.99846 49.7137 10.0299 48.8885H20.8596C18.8793 48.8885 18.178 50.5388 18.0748 51.3639C18.0748 53.3442 19.9313 54.2518 20.8596 54.4581H10.0299Z" fill="#A77760" stroke="#785544" stroke-width="0.7"/>
<path d="M18.0752 51.3639C18.0752 49.6312 19.9317 48.9917 20.86 48.8885C21.4788 48.8885 23.6448 49.198 23.6448 51.6733C23.6448 53.6536 21.7882 54.355 20.86 54.4581C19.9317 54.4581 18.0752 53.5299 18.0752 51.3639Z" fill="#F3D69E" stroke="#E0C590" stroke-width="0.7"/>
<path d="M6.93611 48.8885C4.46075 46.4132 5.90471 44.1441 6.93611 43.319H17.7659C15.7856 43.319 15.0842 44.9692 14.9811 45.7943C14.9811 47.7746 16.8376 48.6823 17.7659 48.8885H6.93611Z" fill="#A77760" stroke="#785544" stroke-width="0.7"/>
<path d="M14.9814 45.7943C14.9814 44.0616 16.838 43.4221 17.7662 43.319C18.3851 43.319 20.551 43.6284 20.551 46.1038C20.551 48.0841 18.6945 48.7854 17.7662 48.8885C16.838 48.8885 14.9814 47.9603 14.9814 45.7943Z" fill="#F3D69E" stroke="#E0C590" stroke-width="0.7"/>
<path d="M3.84236 54.4581C1.367 51.9828 2.81096 49.7137 3.84236 48.8885H14.6721C12.6918 48.8885 11.9905 50.5388 11.8873 51.3639C11.8873 53.3442 13.7438 54.2518 14.6721 54.4581H3.84236Z" fill="#A77760" stroke="#785544" stroke-width="0.7"/>
<path d="M11.8877 51.3639C11.8877 49.6312 13.7442 48.9917 14.6725 48.8885C15.2913 48.8885 17.4573 49.198 17.4573 51.6733C17.4573 53.6536 15.6007 54.355 14.6725 54.4581C13.7442 54.4581 11.8877 53.5299 11.8877 51.3639Z" fill="#F3D69E" stroke="#E0C590" stroke-width="0.7"/>
<path d="M26.7398 34.6552C24.2645 32.1798 25.7084 29.9107 26.7398 29.0856H37.5696C35.5893 29.0856 34.8879 30.7358 34.7848 31.5609C34.7848 33.5412 36.6413 34.4489 37.5696 34.6552H26.7398Z" fill="#A77760" stroke="#785544" stroke-width="0.7"/>
<path d="M34.7852 31.5609C34.7852 29.8282 36.6417 29.1887 37.5699 29.0856C38.1888 29.0856 40.3547 29.395 40.3547 31.8704C40.3547 33.8507 38.4982 34.552 37.5699 34.6552C36.6417 34.6552 34.7852 33.7269 34.7852 31.5609Z" fill="#F3D69E" stroke="#E0C590" stroke-width="0.7"/>
<path d="M23.6451 29.0856C21.1697 26.6102 22.6137 24.3411 23.6451 23.516H34.4748C32.4945 23.516 31.7932 25.1662 31.69 25.9914C31.69 27.9717 33.5466 28.8793 34.4748 29.0856H23.6451Z" fill="#A77760" stroke="#785544" stroke-width="0.7"/>
<path d="M31.6904 25.9914C31.6904 24.2586 33.547 23.6191 34.4752 23.516C35.0941 23.516 37.26 23.8254 37.26 26.3008C37.26 28.2811 35.4035 28.9824 34.4752 29.0856C33.547 29.0856 31.6904 28.1573 31.6904 25.9914Z" fill="#F3D69E" stroke="#E0C590" stroke-width="0.7"/>
<path d="M20.5504 34.6552C18.075 32.1798 19.519 29.9107 20.5504 29.0856H31.3801C29.3998 29.0856 28.6985 30.7358 28.5953 31.5609C28.5953 33.5412 30.4518 34.4489 31.3801 34.6552H20.5504Z" fill="#A77760" stroke="#785544" stroke-width="0.7"/>
<path d="M28.5957 31.5609C28.5957 29.8282 30.4522 29.1887 31.3805 29.0856C31.9993 29.0856 34.1653 29.395 34.1653 31.8704C34.1653 33.8507 32.3088 34.552 31.3805 34.6552C30.4522 34.6552 28.5957 33.7269 28.5957 31.5609Z" fill="#F3D69E" stroke="#E0C590" stroke-width="0.7"/>
<path d="M43.4488 16.0898C40.9734 13.6145 42.4174 11.3454 43.4488 10.5203H54.2785C52.2983 10.5203 51.5969 12.1705 51.4938 12.9956C51.4938 14.9759 53.3503 15.8836 54.2785 16.0898H43.4488Z" fill="#A77760" stroke="#785544" stroke-width="0.7"/>
<path d="M51.4941 12.9956C51.4941 11.2629 53.3507 10.6234 54.2789 10.5203C54.8978 10.5203 57.0637 10.8297 57.0637 13.3051C57.0637 15.2853 55.2072 15.9867 54.2789 16.0898C53.3507 16.0898 51.4941 15.1616 51.4941 12.9956Z" fill="#F3D69E" stroke="#E0C590" stroke-width="0.7"/>
<path d="M40.3541 10.5203C37.8787 8.04489 39.3227 5.77581 40.3541 4.95068H51.1838C49.2035 4.95068 48.5022 6.60093 48.399 7.42605C48.399 9.40635 50.2556 10.314 51.1838 10.5203H40.3541Z" fill="#A77760" stroke="#785544" stroke-width="0.7"/>
<path d="M48.3994 7.42605C48.3994 5.69329 50.2559 5.05382 51.1842 4.95068C51.803 4.95068 53.969 5.2601 53.969 7.73547C53.969 9.71577 52.1125 10.4171 51.1842 10.5203C50.2559 10.5203 48.3994 9.592 48.3994 7.42605Z" fill="#F3D69E" stroke="#E0C590" stroke-width="0.7"/>
<path d="M37.2603 16.0898C34.785 13.6145 36.2289 11.3454 37.2603 10.5203H48.0901C46.1098 10.5203 45.4084 12.1705 45.3053 12.9956C45.3053 14.9759 47.1618 15.8836 48.0901 16.0898H37.2603Z" fill="#A77760" stroke="#785544" stroke-width="0.7"/>
<path d="M45.3057 12.9956C45.3057 11.2629 47.1622 10.6234 48.0905 10.5203C48.7093 10.5203 50.8752 10.8297 50.8752 13.3051C50.8752 15.2853 49.0187 15.9867 48.0905 16.0898C47.1622 16.0898 45.3057 15.1616 45.3057 12.9956Z" fill="#F3D69E" stroke="#E0C590" stroke-width="0.7"/>
</svg>
