<svg width="59" height="59" viewBox="0 0 59 59" fill="none" xmlns="http://www.w3.org/2000/svg">
<rect width="58.79" height="58.79" rx="12" fill="#FFD02A"/>
<path d="M43.7562 14.7194C41.5854 12.5486 42.8517 10.5587 43.7562 9.83508H53.2536C51.517 9.83508 50.9019 11.2823 50.8114 12.0059C50.8114 13.7426 52.4396 14.5385 53.2536 14.7194H43.7562Z" fill="#A77760" stroke="#785544" stroke-width="0.7"/>
<path d="M50.8115 12.0059C50.8115 10.4863 52.4396 9.92553 53.2537 9.83508C53.7964 9.83508 55.6959 10.1064 55.6959 12.2773C55.6959 14.0139 54.0678 14.629 53.2537 14.7194C52.4396 14.7194 50.8115 13.9054 50.8115 12.0059Z" fill="#F3D69E" stroke="#E0C590" stroke-width="0.7"/>
<path d="M41.0424 9.83505C38.8715 7.66422 40.1379 5.67429 41.0424 4.95068H50.5398C48.8031 4.95068 48.188 6.3979 48.0976 7.12151C48.0976 8.85818 49.7257 9.65415 50.5398 9.83505H41.0424Z" fill="#A77760" stroke="#785544" stroke-width="0.7"/>
<path d="M48.0977 7.12151C48.0977 5.60193 49.7258 5.04113 50.5398 4.95068C51.0825 4.95068 52.982 5.22204 52.982 7.39287C52.982 9.12953 51.3539 9.7446 50.5398 9.83505C49.7258 9.83505 48.0977 9.02099 48.0977 7.12151Z" fill="#F3D69E" stroke="#E0C590" stroke-width="0.7"/>
<path d="M38.3285 14.7194C36.1577 12.5486 37.424 10.5587 38.3285 9.83508H47.8259C46.0892 9.83508 45.4742 11.2823 45.3837 12.0059C45.3837 13.7426 47.0118 14.5385 47.8259 14.7194H38.3285Z" fill="#A77760" stroke="#785544" stroke-width="0.7"/>
<path d="M45.3838 12.0059C45.3838 10.4863 47.0119 9.92553 47.826 9.83508C48.3687 9.83508 50.2682 10.1064 50.2682 12.2773C50.2682 14.0139 48.64 14.629 47.826 14.7194C47.0119 14.7194 45.3838 13.9054 45.3838 12.0059Z" fill="#F3D69E" stroke="#E0C590" stroke-width="0.7"/>
<path d="M6.31955 55.027C3.81972 55.4815 3.57353 53.5119 3.76291 52.4703L11.4328 44.8004L14.2735 47.3571L6.31955 55.027Z" fill="#B29476" stroke="#B29476" stroke-width="0.7"/>
<path d="M17.6821 38.835L16.2617 39.9712L18.5343 42.5279L19.9546 41.1075L17.6821 38.835Z" fill="#56545A" stroke="#56545A" stroke-width="0.7"/>
<path d="M17.1139 50.1978L8.5918 41.6756L13.1369 37.1305L21.6591 45.6526L17.1139 50.1978Z" fill="#DFDFE1" stroke="#DFDFE1" stroke-width="0.7"/>
<path d="M22.0854 24.161C23.4982 19.6873 27.5795 18.5688 29.4436 18.5688C36.0659 18.4217 37.7818 22.916 37.979 26.6628C38.1262 29.4588 35.6244 32.4022 34.4471 33.5795C34.4471 35.2277 34.2018 36.768 34.0056 37.2586H32.3868C31.5627 35.1394 31.0624 36.3756 30.9152 37.2586H29.1492C28.0897 35.0217 27.7267 36.3265 27.6776 37.2586H25.4702L25.1758 33.2852C24.5872 32.8437 20.3194 29.7532 22.0854 24.161Z" fill="#D1E0DD" stroke="#D1E0DD" stroke-width="2"/>
<circle cx="26.516" cy="29.0138" r="2.20745" fill="#748080"/>
<circle cx="32.6977" cy="29.0138" r="2.20745" fill="#748080"/>
<path d="M30.7848 32.2515C30.7848 32.6047 29.9018 32.693 29.4603 32.693C28.6362 32.6929 28.5283 32.1043 28.5773 31.81C28.6951 31.1036 29.5094 31.0251 29.9018 31.0742C30.3433 31.0742 30.7848 32.1043 30.7848 32.2515Z" fill="#62676A" stroke="#62676A"/>
</svg>
